<svg version="1.1" viewBox="0.0 0.0 960.0 540.0" fill="none" stroke="none" stroke-linecap="square" stroke-miterlimit="10" xmlns:xlink="http://www.w3.org/1999/xlink" xmlns="http://www.w3.org/2000/svg"><clipPath id="g229a3867043_0_8.0"><path d="m0 0l960.0 0l0 540.0l-960.0 0l0 -540.0z" clip-rule="nonzero"/></clipPath><g clip-path="url(#g229a3867043_0_8.0)"><path fill="#ffffff" d="m0 0l960.0 0l0 540.0l-960.0 0z" fill-rule="evenodd"/><path shape-rendering="crispEdges" fill="#eeeeee" d="m27.175854 41.102364l174.23885 0l0 76.29921l-174.23885 0l0 -76.29921z" fill-rule="nonzero"/><path shape-rendering="crispEdges" fill="#eeeeee" d="m201.4147 41.102364l174.23883 0l0 76.29921l-174.23883 0l0 -76.29921z" fill-rule="nonzero"/><path shape-rendering="crispEdges" fill="#f4cccc" d="m27.175854 117.40157l174.23885 0l0 76.29922l-174.23885 0l0 -76.29922z" fill-rule="nonzero"/><path shape-rendering="crispEdges" fill="#cfe2f3" d="m27.175854 193.70079l174.23885 0l0 76.29921l-174.23885 0l0 -76.29921z" fill-rule="nonzero"/><path shape-rendering="crispEdges" fill="#cfe2f3" d="m27.175854 270.0l174.23885 0l0 76.299225l-174.23885 0l0 -76.299225z" fill-rule="nonzero"/><path shape-rendering="crispEdges" fill="#f4cccc" d="m27.175854 346.29922l174.23885 0l0 76.299194l-174.23885 0l0 -76.299194z" fill-rule="nonzero"/><path shape-rendering="crispEdges" fill="#f4cccc" d="m27.175854 422.59842l174.23885 0l0 76.299225l-174.23885 0l0 -76.299225z" fill-rule="nonzero"/><path stroke="#9e9e9e" stroke-width="3.0" stroke-linecap="butt" d="m27.175854 39.603676l0 460.79266" fill-rule="nonzero"/><path stroke="#9e9e9e" stroke-width="3.0" stroke-linecap="butt" d="m201.4147 39.603676l0 460.79266" fill-rule="nonzero"/><path stroke="#9e9e9e" stroke-width="3.0" stroke-linecap="butt" d="m375.65353 39.603676l0 460.79266" fill-rule="nonzero"/><path stroke="#9e9e9e" stroke-width="3.0" stroke-linecap="butt" d="m25.677166 41.102364l351.47507 0" fill-rule="nonzero"/><path stroke="#9e9e9e" stroke-width="3.0" stroke-linecap="butt" d="m25.677166 117.40157l351.47507 0" fill-rule="nonzero"/><path stroke="#9e9e9e" stroke-width="3.0" stroke-linecap="butt" d="m25.677166 193.70079l351.47507 0" fill-rule="nonzero"/><path stroke="#9e9e9e" stroke-width="3.0" stroke-linecap="butt" d="m25.677166 270.0l351.47507 0" fill-rule="nonzero"/><path stroke="#9e9e9e" stroke-width="3.0" stroke-linecap="butt" d="m25.677166 346.29922l351.47507 0" fill-rule="nonzero"/><path stroke="#9e9e9e" stroke-width="3.0" stroke-linecap="butt" d="m25.677166 422.59842l351.47507 0" fill-rule="nonzero"/><path stroke="#9e9e9e" stroke-width="3.0" stroke-linecap="butt" d="m25.677166 498.89764l351.47507 0" fill-rule="nonzero"/><path fill="#000000" d="m47.488354 64.972984l3.0 0.9375q-0.6875 2.5 -2.296875 3.71875q-1.59375 1.21875 -4.046875 1.21875q-3.046875 0 -5.0 -2.078125q-1.953125 -2.078125 -1.953125 -5.687496q0 -3.8125 1.96875 -5.921875q1.96875 -2.109375 5.171875 -2.109375q2.796875 0 4.546875 1.65625q1.046875 0.984375 1.5625 2.8125l-3.046875 0.734375q-0.28125 -1.1875 -1.140625 -1.875q-0.84375 -0.6875 -2.078125 -0.6875q-1.703125 0 -2.765625 1.21875q-1.046875 1.21875 -1.046875 3.9375q0 2.9062462 1.03125 4.140621q1.046875 1.21875 2.71875 1.21875q1.234375 0 2.109375 -0.78125q0.890625 -0.78125 1.265625 -2.453125zm4.9493713 -0.078125q0 -1.4531212 0.71875 -2.8124962q0.71875 -1.375 2.03125 -2.09375q1.3125 -0.71875 2.9375 -0.71875q2.515625 0 4.109375 1.640625q1.609375 1.625 1.609375 4.109371q0 2.515625 -1.625 4.171875q-1.609375 1.640625 -4.0625 1.640625q-1.53125 0 -2.90625 -0.6875q-1.375 -0.6875 -2.09375 -2.015625q-0.71875 -1.328125 -0.71875 -3.234375zm3.0 0.15625q0 1.640625 0.78125 2.515625q0.78125 0.875 1.921875 0.875q1.140625 0 1.921875 -0.875q0.78125 -0.875 0.78125 -2.53125q0 -1.6249962 -0.78125 -2.4999962q-0.78125 -0.875 -1.921875 -0.875q-1.140625 0 -1.921875 0.875q-0.78125 0.875 -0.78125 2.5156212zm17.981197 5.53125l0 -1.65625q-0.609375 0.890625 -1.59375 1.40625q-0.984375 0.5 -2.078125 0.5q-1.109375 0 -2.0 -0.484375q-0.875 -0.5 -1.28125 -1.375q-0.390625 -0.890625 -0.390625 -2.453125l0 -6.999996l2.921875 0l0 5.078121q0 2.34375 0.15625 2.875q0.171875 0.515625 0.59375 0.828125q0.4375 0.296875 1.09375 0.296875q0.75 0 1.34375 -0.40625q0.59375 -0.40625 0.8125 -1.015625q0.21875 -0.609375 0.21875 -2.984375l0 -4.671871l2.921875 0l0 11.062496l-2.71875 0zm15.809326 0l-2.921875 0l0 -5.640625q0 -1.7968712 -0.1875 -2.3124962q-0.1875 -0.53125 -0.609375 -0.828125q-0.421875 -0.296875 -1.015625 -0.296875q-0.765625 0 -1.375 0.421875q-0.59375 0.421875 -0.828125 1.109375q-0.21875 0.6875 -0.21875 2.5312462l0 5.015625l-2.921875 0l0 -11.062496l2.71875 0l0 1.625q1.4375 -1.875 3.640625 -1.875q0.96875 0 1.765625 0.359375q0.8125 0.34375 1.21875 0.890625q0.40625 0.53125 0.5625 1.21875q0.171875 0.6875 0.171875 1.96875l0 6.874996zm8.043701 -11.062496l0 2.328125l-2.0 0l0 4.468746q0 1.34375 0.046875 1.578125q0.0625 0.21875 0.265625 0.375q0.203125 0.140625 0.5 0.140625q0.40625 0 1.171875 -0.28125l0.25 2.265625q-1.015625 0.4375 -2.3125 0.4375q-0.796875 0 -1.4375 -0.265625q-0.625 -0.265625 -0.921875 -0.6875q-0.296875 -0.421875 -0.40625 -1.140625q-0.09375 -0.515625 -0.09375 -2.0625l0 -4.828121l-1.34375 0l0 -2.328125l1.34375 0l0 -2.1875l2.9375 -1.71875l0 3.90625l2.0 0zm4.8211823 11.062496l-2.921875 0l0 -11.062496l2.71875 0l0 1.578125q0.703125 -1.125 1.25 -1.46875q0.5625 -0.359375 1.265625 -0.359375q1.0 0 1.9375 0.5625l-0.90625 2.546875q-0.75 -0.484375 -1.375 -0.484375q-0.625 0 -1.046875 0.34375q-0.421875 0.328125 -0.671875 1.21875q-0.25 0.8906212 -0.25 3.7031212l0 3.421875zm4.112564 -11.062496l3.125 0l2.640625 7.859371l2.578125 -7.859371l3.03125 0l-3.90625 10.640621l-0.6875 1.9375q-0.390625 0.96875 -0.75 1.46875q-0.34375 0.515625 -0.796875 0.828125q-0.453125 0.328125 -1.109375 0.5q-0.65625 0.171875 -1.5 0.171875q-0.84375 0 -1.65625 -0.171875l-0.25 -2.296875q0.6875 0.140625 1.234375 0.140625q1.015625 0 1.5 -0.609375q0.5 -0.59375 0.765625 -1.515625l-4.21875 -11.093746zm26.30297 5.453121l0 -2.5781212l6.640625 0l0 6.078121q-0.96875 0.9375 -2.8125 1.65625q-1.828125 0.71875 -3.71875 0.71875q-2.390625 0 -4.171875 -1.0q-1.7812576 -1.015625 -2.6875076 -2.875q-0.890625 -1.875 -0.890625 -4.078121q0 -2.390625 1.0 -4.234375q1.0 -1.859375 2.9375076 -2.84375q1.46875 -0.765625 3.65625 -0.765625q2.828125 0 4.421875 1.203125q1.609375 1.1875 2.0625 3.296875l-3.0625 0.5625q-0.3125 -1.125 -1.203125 -1.765625q-0.890625 -0.65625 -2.21875 -0.65625q-2.03125 0 -3.21875 1.28125q-1.1875 1.28125 -1.1875 3.796875q0 2.7187462 1.203125 4.078121q1.203125 1.359375 3.171875 1.359375q0.96875 0 1.9375 -0.375q0.96875 -0.390625 1.671875 -0.921875l0 -1.9375l-3.53125 0zm12.261581 5.609375l-2.921875 0l0 -11.062496l2.71875 0l0 1.578125q0.703125 -1.125 1.25 -1.46875q0.5625 -0.359375 1.265625 -0.359375q1.0 0 1.9375 0.5625l-0.90625 2.546875q-0.75 -0.484375 -1.375 -0.484375q-0.625 0 -1.046875 0.34375q-0.421875 0.328125 -0.671875 1.21875q-0.25 0.8906212 -0.25 3.7031212l0 3.421875zm4.831314 -5.6875q0 -1.4531212 0.71875 -2.8124962q0.71875 -1.375 2.03125 -2.09375q1.3125 -0.71875 2.9375 -0.71875q2.515625 0 4.109375 1.640625q1.609375 1.625 1.609375 4.109371q0 2.515625 -1.625 4.171875q-1.609375 1.640625 -4.0625 1.640625q-1.53125 0 -2.90625 -0.6875q-1.375 -0.6875 -2.09375 -2.015625q-0.71875 -1.328125 -0.71875 -3.234375zm3.0 0.15625q0 1.640625 0.78125 2.515625q0.78125 0.875 1.921875 0.875q1.140625 0 1.921875 -0.875q0.78125 -0.875 0.78125 -2.53125q0 -1.6249962 -0.78125 -2.4999962q-0.78125 -0.875 -1.921875 -0.875q-1.140625 0 -1.921875 0.875q-0.78125 0.875 -0.78125 2.5156212zm17.981201 5.53125l0 -1.65625q-0.609375 0.890625 -1.59375 1.40625q-0.984375 0.5 -2.078125 0.5q-1.109375 0 -2.0 -0.484375q-0.875 -0.5 -1.28125 -1.375q-0.390625 -0.890625 -0.390625 -2.453125l0 -6.999996l2.921875 0l0 5.078121q0 2.34375 0.15625 2.875q0.171875 0.515625 0.59375 0.828125q0.4375 0.296875 1.09375 0.296875q0.75 0 1.34375 -0.40625q0.59375 -0.40625 0.8125 -1.015625q0.21875 -0.609375 0.21875 -2.984375l0 -4.671871l2.921875 0l0 11.062496l-2.71875 0zm5.668701 -11.062496l2.71875 0l0 1.625q0.53125 -0.828125 1.4375 -1.34375q0.90625 -0.53125 2.015625 -0.53125q1.921875 0 3.265625 1.515625q1.34375 1.5 1.34375 4.203121q0 2.765625 -1.359375 4.3125q-1.34375 1.53125 -3.265625 1.53125q-0.921875 0 -1.671875 -0.359375q-0.734375 -0.375 -1.5625 -1.25l0 5.5625l-2.921875 0l0 -15.265621zm2.890625 5.343746q0 1.859375 0.734375 2.75q0.75 0.890625 1.8125 0.890625q1.015625 0 1.6875 -0.8125q0.6875 -0.8125 0.6875 -2.6875q0 -1.7343712 -0.703125 -2.5781212q-0.703125 -0.84375 -1.734375 -0.84375q-1.0625 0 -1.78125 0.828125q-0.703125 0.828125 -0.703125 2.4531212z" fill-rule="nonzero"/><path fill="#000000" d="m211.94595 55.31674l3.078125 0l0 8.265625q0 1.9687462 0.125 2.5468712q0.1875 0.9375 0.9375 1.515625q0.75 0.5625 2.03125 0.5625q1.3125 0 1.984375 -0.53125q0.671875 -0.546875 0.796875 -1.328125q0.140625 -0.78125 0.140625 -2.5937462l0 -8.4375l3.078125 0l0 8.015625q0 2.7499962 -0.25 3.8906212q-0.25 1.125 -0.921875 1.90625q-0.671875 0.78125 -1.796875 1.25q-1.125 0.46875 -2.9375 0.46875q-2.1875 0 -3.3125 -0.5q-1.125 -0.515625 -1.78125 -1.3125q-0.65625 -0.8125 -0.875 -1.703125q-0.296875 -1.3125 -0.296875 -3.8749962l0 -8.140625zm25.464996 15.265621l-2.921875 0l0 -5.640625q0 -1.7968712 -0.1875 -2.3124962q-0.1875 -0.53125 -0.609375 -0.828125q-0.421875 -0.296875 -1.015625 -0.296875q-0.765625 0 -1.375 0.421875q-0.59375 0.421875 -0.828125 1.109375q-0.21875 0.6875 -0.21875 2.5312462l0 5.015625l-2.921875 0l0 -11.062496l2.71875 0l0 1.625q1.4375 -1.875 3.640625 -1.875q0.96875 0 1.765625 0.359375q0.8125 0.34375 1.21875 0.890625q0.40625 0.53125 0.5625 1.21875q0.171875 0.6875 0.171875 1.96875l0 6.874996zm9.371826 -3.515625l2.90625 0.484375q-0.546875 1.609375 -1.765625 2.453125q-1.21875 0.828125 -3.03125 0.828125q-2.890625 0 -4.28125 -1.890625q-1.09375 -1.5 -1.09375 -3.8125q0 -2.7499962 1.4375 -4.296871q1.4375 -1.5625 3.640625 -1.5625q2.46875 0 3.890625 1.640625q1.421875 1.625 1.359375 4.984371l-7.328125 0q0.03125 1.296875 0.703125 2.03125q0.6875 0.71875 1.703125 0.71875q0.6875 0 1.15625 -0.375q0.46875 -0.375 0.703125 -1.203125zm0.171875 -2.96875q-0.03125 -1.2656212 -0.65625 -1.9218712q-0.625 -0.671875 -1.53125 -0.671875q-0.953125 0 -1.578125 0.703125q-0.625 0.703125 -0.609375 1.8906212l4.375 0zm5.0648193 -4.578121l2.703125 0l0 1.515625q1.4375 -1.765625 3.4375 -1.765625q1.0625 0 1.84375 0.4375q0.78125 0.4375 1.28125 1.328125q0.734375 -0.890625 1.578125 -1.328125q0.84375 -0.4375 1.796875 -0.4375q1.21875 0 2.0625 0.5q0.84375 0.484375 1.265625 1.453125q0.296875 0.703125 0.296875 2.28125l0 7.078121l-2.921875 0l0 -6.328125q0 -1.6406212 -0.3125 -2.1249962q-0.40625 -0.625 -1.25 -0.625q-0.609375 0 -1.15625 0.375q-0.53125 0.375 -0.78125 1.109375q-0.234375 0.71875 -0.234375 2.2812462l0 5.3125l-2.921875 0l0 -6.0625q0 -1.6093712 -0.15625 -2.0781212q-0.15625 -0.46875 -0.484375 -0.703125q-0.328125 -0.234375 -0.890625 -0.234375q-0.671875 0 -1.21875 0.375q-0.546875 0.359375 -0.78125 1.046875q-0.234375 0.6875 -0.234375 2.2812462l0 5.375l-2.921875 0l0 -11.062496zm19.104736 0l2.71875 0l0 1.625q0.53125 -0.828125 1.4375 -1.34375q0.90625 -0.53125 2.015625 -0.53125q1.921875 0 3.265625 1.515625q1.34375 1.5 1.34375 4.203121q0 2.765625 -1.359375 4.3125q-1.34375 1.53125 -3.265625 1.53125q-0.921875 0 -1.671875 -0.359375q-0.734375 -0.375 -1.5625 -1.25l0 5.5625l-2.921875 0l0 -15.265621zm2.890625 5.343746q0 1.859375 0.734375 2.75q0.75 0.890625 1.8125 0.890625q1.015625 0 1.6875 -0.8125q0.6875 -0.8125 0.6875 -2.6875q0 -1.7343712 -0.703125 -2.5781212q-0.703125 -0.84375 -1.734375 -0.84375q-1.0625 0 -1.78125 0.828125q-0.703125 0.828125 -0.703125 2.4531212zm10.215576 5.71875l0 -15.265621l2.921875 0l0 15.265621l-2.921875 0zm5.253784 -5.6875q0 -1.4531212 0.71875 -2.8124962q0.71875 -1.375 2.03125 -2.09375q1.3125 -0.71875 2.9375 -0.71875q2.515625 0 4.109375 1.640625q1.609375 1.625 1.609375 4.109371q0 2.515625 -1.625 4.171875q-1.609375 1.640625 -4.0625 1.640625q-1.53125 0 -2.90625 -0.6875q-1.375 -0.6875 -2.09375 -2.015625q-0.71875 -1.328125 -0.71875 -3.234375zm3.0 0.15625q0 1.640625 0.78125 2.515625q0.78125 0.875 1.921875 0.875q1.140625 0 1.921875 -0.875q0.78125 -0.875 0.78125 -2.53125q0 -1.6249962 -0.78125 -2.4999962q-0.78125 -0.875 -1.921875 -0.875q-1.140625 0 -1.921875 0.875q-0.78125 0.875 -0.78125 2.5156212zm9.309326 -5.531246l3.125 0l2.640625 7.859371l2.578125 -7.859371l3.03125 0l-3.90625 10.640621l-0.6875 1.9375q-0.390625 0.96875 -0.75 1.46875q-0.34375 0.515625 -0.796875 0.828125q-0.453125 0.328125 -1.109375 0.5q-0.65625 0.171875 -1.5 0.171875q-0.84375 0 -1.65625 -0.171875l-0.25 -2.296875q0.6875 0.140625 1.234375 0.140625q1.015625 0 1.5 -0.609375q0.5 -0.59375 0.765625 -1.515625l-4.21875 -11.093746zm13.033569 0l2.703125 0l0 1.515625q1.4375 -1.765625 3.4375 -1.765625q1.0625 0 1.84375 0.4375q0.78125 0.4375 1.28125 1.328125q0.734375 -0.890625 1.578125 -1.328125q0.84375 -0.4375 1.796875 -0.4375q1.21875 0 2.0625 0.5q0.84375 0.484375 1.265625 1.453125q0.296875 0.703125 0.296875 2.28125l0 7.078121l-2.921875 0l0 -6.328125q0 -1.6406212 -0.3125 -2.1249962q-0.40625 -0.625 -1.25 -0.625q-0.609375 0 -1.15625 0.375q-0.53125 0.375 -0.78125 1.109375q-0.234375 0.71875 -0.234375 2.2812462l0 5.3125l-2.921875 0l0 -6.0625q0 -1.6093712 -0.15625 -2.0781212q-0.15625 -0.46875 -0.484375 -0.703125q-0.328125 -0.234375 -0.890625 -0.234375q-0.671875 0 -1.21875 0.375q-0.546875 0.359375 -0.78125 1.046875q-0.234375 0.6875 -0.234375 2.2812462l0 5.375l-2.921875 0l0 -11.062496zm25.589111 7.546871l2.90625 0.484375q-0.546875 1.609375 -1.765625 2.453125q-1.21875 0.828125 -3.03125 0.828125q-2.890625 0 -4.28125 -1.890625q-1.09375 -1.5 -1.09375 -3.8125q0 -2.7499962 1.4375 -4.296871q1.4375 -1.5625 3.640625 -1.5625q2.46875 0 3.890625 1.640625q1.421875 1.625 1.359375 4.984371l-7.328125 0q0.03125 1.296875 0.703125 2.03125q0.6875 0.71875 1.703125 0.71875q0.6875 0 1.15625 -0.375q0.46875 -0.375 0.703125 -1.203125zm0.171875 -2.96875q-0.03125 -1.2656212 -0.65625 -1.9218712q-0.625 -0.671875 -1.53125 -0.671875q-0.953125 0 -1.578125 0.703125q-0.625 0.703125 -0.609375 1.8906212l4.375 0zm15.346069 6.484375l-2.921875 0l0 -5.640625q0 -1.7968712 -0.1875 -2.3124962q-0.1875 -0.53125 -0.609375 -0.828125q-0.421875 -0.296875 -1.015625 -0.296875q-0.765625 0 -1.375 0.421875q-0.59375 0.421875 -0.828125 1.109375q-0.21875 0.6875 -0.21875 2.5312462l0 5.015625l-2.921875 0l0 -11.062496l2.71875 0l0 1.625q1.4375 -1.875 3.640625 -1.875q0.96875 0 1.765625 0.359375q0.8125 0.34375 1.21875 0.890625q0.40625 0.53125 0.5625 1.21875q0.171875 0.6875 0.171875 1.96875l0 6.874996zm8.043701 -11.062496l0 2.328125l-2.0 0l0 4.468746q0 1.34375 0.046875 1.578125q0.0625 0.21875 0.265625 0.375q0.203125 0.140625 0.5 0.140625q0.40625 0 1.171875 -0.28125l0.25 2.265625q-1.015625 0.4375 -2.3125 0.4375q-0.796875 0 -1.4375 -0.265625q-0.625 -0.265625 -0.921875 -0.6875q-0.296875 -0.421875 -0.40625 -1.140625q-0.09375 -0.515625 -0.09375 -2.0625l0 -4.828121l-1.34375 0l0 -2.328125l1.34375 0l0 -2.1875l2.9375 -1.71875l0 3.90625l2.0 0z" fill-rule="nonzero"/><path fill="#000000" d="m211.9772 96.18236l0 -15.265625l6.484375 0q2.453125 0 3.5625 0.421875q1.109375 0.40625 1.765625 1.453125q0.671875 1.046875 0.671875 2.40625q0 1.71875 -1.015625 2.84375q-1.0 1.109375 -3.015625 1.40625q1.0 0.578125 1.640625 1.28125q0.65625 0.6875 1.765625 2.46875l1.859375 2.984375l-3.6875 0l-2.21875 -3.328125q-1.1875 -1.78125 -1.625 -2.234375q-0.4375 -0.46875 -0.9375 -0.640625q-0.484375 -0.171875 -1.546875 -0.171875l-0.625 0l0 6.375l-3.078125 0zm3.078125 -8.8125l2.28125 0q2.21875 0 2.765625 -0.1875q0.5625 -0.1875 0.875 -0.640625q0.3125 -0.46875 0.3125 -1.140625q0 -0.78125 -0.421875 -1.25q-0.40625 -0.46875 -1.15625 -0.59375q-0.375 -0.0625 -2.25 -0.0625l-2.40625 0l0 3.875zm14.480621 1.125l-2.65625 -0.484375q0.453125 -1.59375 1.546875 -2.359375q1.09375 -0.78125 3.25 -0.78125q1.953125 0 2.90625 0.46875q0.96875 0.453125 1.359375 1.171875q0.390625 0.71875 0.390625 2.625l-0.03125 3.40625q0 1.46875 0.125 2.15625q0.140625 0.6875 0.53125 1.484375l-2.890625 0q-0.109375 -0.296875 -0.28125 -0.859375q-0.078125 -0.265625 -0.109375 -0.34375q-0.75 0.71875 -1.609375 1.09375q-0.84375 0.359375 -1.8125 0.359375q-1.703125 0 -2.6875 -0.921875q-0.984375 -0.9375 -0.984375 -2.34375q0 -0.9375 0.4375 -1.671875q0.453125 -0.734375 1.25 -1.125q0.8125 -0.390625 2.34375 -0.6875q2.046875 -0.390625 2.84375 -0.71875l0 -0.296875q0 -0.84375 -0.421875 -1.203125q-0.421875 -0.359375 -1.578125 -0.359375q-0.78125 0 -1.21875 0.3125q-0.4375 0.3125 -0.703125 1.078125zm3.921875 2.375q-0.5625 0.1875 -1.78125 0.453125q-1.21875 0.25 -1.59375 0.5q-0.578125 0.40625 -0.578125 1.03125q0 0.625 0.453125 1.078125q0.46875 0.4375 1.171875 0.4375q0.796875 0 1.515625 -0.515625q0.53125 -0.40625 0.6875 -0.96875q0.125 -0.375 0.125 -1.4375l0 -0.578125zm10.830444 -5.75l0 2.328125l-2.0 0l0 4.46875q0 1.34375 0.046875 1.578125q0.0625 0.21875 0.265625 0.375q0.203125 0.140625 0.5 0.140625q0.40625 0 1.171875 -0.28125l0.25 2.265625q-1.015625 0.4375 -2.3125 0.4375q-0.796875 0 -1.4375 -0.265625q-0.625 -0.265625 -0.921875 -0.6875q-0.296875 -0.421875 -0.40625 -1.140625q-0.09375 -0.515625 -0.09375 -2.0625l0 -4.828125l-1.34375 0l0 -2.328125l1.34375 0l0 -2.1875l2.9375 -1.71875l0 3.90625l2.0 0zm8.430557 7.546875l2.90625 0.484375q-0.546875 1.609375 -1.765625 2.453125q-1.21875 0.828125 -3.03125 0.828125q-2.890625 0 -4.28125 -1.890625q-1.09375 -1.5 -1.09375 -3.8125q0 -2.75 1.4375 -4.296875q1.4375 -1.5625 3.640625 -1.5625q2.46875 0 3.890625 1.640625q1.421875 1.625 1.359375 4.984375l-7.328125 0q0.03125 1.296875 0.703125 2.03125q0.6875 0.71875 1.703125 0.71875q0.6875 0 1.15625 -0.375q0.46875 -0.375 0.703125 -1.203125zm0.171875 -2.96875q-0.03125 -1.265625 -0.65625 -1.921875q-0.625 -0.671875 -1.53125 -0.671875q-0.953125 0 -1.578125 0.703125q-0.625 0.703125 -0.609375 1.890625l4.375 0z" fill-rule="nonzero"/><path fill="#000000" d="m37.863354 146.88158l0 -15.265625l11.03125 0l0 1.796875l-9.015625 0l0 4.671875l8.453125 0l0 1.796875l-8.453125 0l0 5.203125l9.375 0l0 1.796875l-11.390625 0zm24.194443 -15.265625l2.0312462 0l0 8.8125q0 2.3125 -0.5312462 3.671875q-0.515625 1.34375 -1.875 2.203125q-1.359375 0.84375 -3.5625 0.84375q-2.140625 0 -3.515625 -0.734375q-1.359375 -0.75 -1.953125 -2.140625q-0.578125 -1.40625 -0.578125 -3.84375l0 -8.8125l2.03125 0l0 8.8125q0 1.984375 0.359375 2.9375q0.375 0.9375 1.265625 1.453125q0.90625 0.5 2.21875 0.5q2.21875 0 3.15625 -1.0q0.953125 -1.015625 0.953125 -3.890625l0 -8.8125z" fill-rule="nonzero"/><path fill="#000000" d="m211.30533 139.35033q0 -2.703125 0.546875 -4.34375q0.5625 -1.65625 1.65625 -2.546875q1.109375 -0.90625 2.765625 -0.90625q1.234375 0 2.15625 0.5q0.9375 0.484375 1.53125 1.421875q0.609375 0.9375 0.953125 2.28125q0.34375 1.328125 0.34375 3.59375q0 2.6875 -0.5625 4.34375q-0.546875 1.640625 -1.640625 2.546875q-1.09375 0.90625 -2.78125 0.90625q-2.203125 0 -3.46875 -1.59375q-1.5 -1.90625 -1.5 -6.203125zm1.921875 0q0 3.765625 0.875 5.015625q0.890625 1.234375 2.171875 1.234375q1.296875 0 2.171875 -1.25q0.890625 -1.25 0.890625 -5.0q0 -3.765625 -0.890625 -5.0q-0.875 -1.25 -2.1875 -1.25q-1.296875 0 -2.0625 1.09375q-0.96875 1.40625 -0.96875 5.15625zm10.986694 7.53125l0 -2.140625l2.140625 0l0 2.140625l-2.140625 0zm4.878769 -7.53125q0 -2.703125 0.546875 -4.34375q0.5625 -1.65625 1.65625 -2.546875q1.109375 -0.90625 2.765625 -0.90625q1.234375 0 2.15625 0.5q0.9375 0.484375 1.53125 1.421875q0.609375 0.9375 0.953125 2.28125q0.34375 1.328125 0.34375 3.59375q0 2.6875 -0.5625 4.34375q-0.546875 1.640625 -1.640625 2.546875q-1.09375 0.90625 -2.78125 0.90625q-2.203125 0 -3.46875 -1.59375q-1.5 -1.90625 -1.5 -6.203125zm1.921875 0q0 3.765625 0.875 5.015625q0.890625 1.234375 2.171875 1.234375q1.296875 0 2.171875 -1.25q0.890625 -1.25 0.890625 -5.0q0 -3.765625 -0.890625 -5.0q-0.875 -1.25 -2.1875 -1.25q-1.296875 0 -2.0625 1.09375q-0.96875 1.40625 -0.96875 5.15625zm9.939819 3.5l1.875 -0.25q0.328125 1.59375 1.09375 2.296875q0.78125 0.703125 1.90625 0.703125q1.3125 0 2.21875 -0.90625q0.921875 -0.921875 0.921875 -2.28125q0 -1.296875 -0.84375 -2.125q-0.84375 -0.84375 -2.140625 -0.84375q-0.53125 0 -1.328125 0.203125l0.203125 -1.640625q0.1875 0.015625 0.3125 0.015625q1.1875 0 2.140625 -0.625q0.96875 -0.625 0.96875 -1.921875q0 -1.03125 -0.703125 -1.703125q-0.6875 -0.671875 -1.796875 -0.671875q-1.09375 0 -1.828125 0.6875q-0.71875 0.6875 -0.9375 2.0625l-1.875 -0.34375q0.34375 -1.875 1.5625 -2.90625q1.21875 -1.046875 3.03125 -1.046875q1.25 0 2.296875 0.546875q1.0625 0.53125 1.609375 1.453125q0.5625 0.921875 0.5625 1.96875q0 0.984375 -0.53125 1.796875q-0.53125 0.8125 -1.5625 1.296875q1.34375 0.3125 2.09375 1.296875q0.75 0.984375 0.75 2.453125q0 2.0 -1.453125 3.390625q-1.453125 1.390625 -3.6875 1.390625q-2.015625 0 -3.34375 -1.1875q-1.328125 -1.203125 -1.515625 -3.109375z" fill-rule="nonzero"/><path fill="#000000" d="m37.582104 223.18079l0 -11.0625l1.6875 0l0 1.578125q1.21875 -1.828125 3.515625 -1.828125q1.0 0 1.84375 0.359375q0.84375 0.359375 1.25 0.953125q0.421875 0.578125 0.59375 1.375q0.09375 0.515625 0.09375 1.828125l0 6.796875l-1.875 0l0 -6.734375q0 -1.140625 -0.21875 -1.703125q-0.21875 -0.578125 -0.78125 -0.90625q-0.546875 -0.34375 -1.296875 -0.34375q-1.203125 0 -2.078125 0.765625q-0.859375 0.75 -0.859375 2.875l0 6.046875l-1.875 0zm11.158569 -5.53125q0 -3.078125 1.71875 -4.546875q1.421875 -1.234375 3.46875 -1.234375q2.28125 0 3.71875 1.5q1.453125 1.484375 1.453125 4.125q0 2.140625 -0.640625 3.359375q-0.625 1.21875 -1.859375 1.90625q-1.21875 0.671875 -2.671875 0.671875q-2.3125 0 -3.75 -1.484375q-1.4375 -1.5 -1.4375 -4.296875zm1.9375 0q0 2.125 0.921875 3.1875q0.921875 1.046875 2.328125 1.046875q1.40625 0 2.328125 -1.0625q0.921875 -1.0625 0.921875 -3.234375q0 -2.046875 -0.9375 -3.109375q-0.921875 -1.0625 -2.3125 -1.0625q-1.40625 0 -2.328125 1.0625q-0.921875 1.046875 -0.921875 3.171875zm10.627319 5.53125l0 -11.0625l1.6875 0l0 1.578125q1.2187462 -1.828125 3.5156212 -1.828125q1.0 0 1.84375 0.359375q0.84375 0.359375 1.25 0.953125q0.421875 0.578125 0.59375 1.375q0.09375 0.515625 0.09375 1.828125l0 6.796875l-1.875 0l0 -6.734375q0 -1.140625 -0.21875 -1.703125q-0.21875 -0.578125 -0.78125 -0.90625q-0.546875 -0.34375 -1.296875 -0.34375q-1.203125 0 -2.078125 0.765625q-0.8593712 0.75 -0.8593712 2.875l0 6.046875l-1.875 0zm11.1273155 -4.578125l0 -1.890625l5.765625 0l0 1.890625l-5.765625 0zm8.118057 4.578125l0 -15.265625l11.03125 0l0 1.796875l-9.015625 0l0 4.671875l8.453125 0l0 1.796875l-8.453125 0l0 5.203125l9.375 0l0 1.796875l-11.390625 0zm24.194443 -15.265625l2.03125 0l0 8.8125q0 2.3125 -0.53125 3.671875q-0.515625 1.34375 -1.875 2.203125q-1.359375 0.84375 -3.5625 0.84375q-2.140625 0 -3.515625 -0.734375q-1.359375 -0.75 -1.953125 -2.140625q-0.578125 -1.40625 -0.578125 -3.84375l0 -8.8125l2.03125 0l0 8.8125q0 1.984375 0.359375 2.9375q0.375 0.9375 1.265625 1.453125q0.90625 0.5 2.21875 0.5q2.21875 0 3.15625 -1.0q0.953125 -1.015625 0.953125 -3.890625l0 -8.8125z" fill-rule="nonzero"/><path fill="#000000" d="m211.30533 215.64954q0 -2.703125 0.546875 -4.34375q0.5625 -1.65625 1.65625 -2.546875q1.109375 -0.90625 2.765625 -0.90625q1.234375 0 2.15625 0.5q0.9375 0.484375 1.53125 1.421875q0.609375 0.9375 0.953125 2.28125q0.34375 1.328125 0.34375 3.59375q0 2.6875 -0.5625 4.34375q-0.546875 1.640625 -1.640625 2.546875q-1.09375 0.90625 -2.78125 0.90625q-2.203125 0 -3.46875 -1.59375q-1.5 -1.90625 -1.5 -6.203125zm1.921875 0q0 3.765625 0.875 5.015625q0.890625 1.234375 2.171875 1.234375q1.296875 0 2.171875 -1.25q0.890625 -1.25 0.890625 -5.0q0 -3.765625 -0.890625 -5.0q-0.875 -1.25 -2.1875 -1.25q-1.296875 0 -2.0625 1.09375q-0.96875 1.40625 -0.96875 5.15625zm10.986694 7.53125l0 -2.140625l2.140625 0l0 2.140625l-2.140625 0zm4.878769 -7.53125q0 -2.703125 0.546875 -4.34375q0.5625 -1.65625 1.65625 -2.546875q1.109375 -0.90625 2.765625 -0.90625q1.234375 0 2.15625 0.5q0.9375 0.484375 1.53125 1.421875q0.609375 0.9375 0.953125 2.28125q0.34375 1.328125 0.34375 3.59375q0 2.6875 -0.5625 4.34375q-0.546875 1.640625 -1.640625 2.546875q-1.09375 0.90625 -2.78125 0.90625q-2.203125 0 -3.46875 -1.59375q-1.5 -1.90625 -1.5 -6.203125zm1.921875 0q0 3.765625 0.875 5.015625q0.890625 1.234375 2.171875 1.234375q1.296875 0 2.171875 -1.25q0.890625 -1.25 0.890625 -5.0q0 -3.765625 -0.890625 -5.0q-0.875 -1.25 -2.1875 -1.25q-1.296875 0 -2.0625 1.09375q-0.96875 1.40625 -0.96875 5.15625zm19.78357 5.734375l0 1.796875l-10.09375 0q-0.015625 -0.671875 0.21875 -1.296875q0.390625 -1.03125 1.234375 -2.03125q0.859375 -1.0 2.453125 -2.3125q2.5 -2.046875 3.375 -3.234375q0.875 -1.203125 0.875 -2.25q0 -1.125 -0.796875 -1.890625q-0.796875 -0.765625 -2.078125 -0.765625q-1.359375 0 -2.171875 0.8125q-0.8125 0.8125 -0.828125 2.25l-1.921875 -0.1875q0.203125 -2.15625 1.484375 -3.28125q1.296875 -1.140625 3.46875 -1.140625q2.203125 0 3.484375 1.21875q1.28125 1.21875 1.28125 3.015625q0 0.921875 -0.375 1.8125q-0.375 0.875 -1.25 1.859375q-0.859375 0.96875 -2.890625 2.6875q-1.6875 1.40625 -2.171875 1.921875q-0.46875 0.5 -0.78125 1.015625l7.484375 0z" fill-rule="nonzero"/><path fill="#000000" d="m37.582104 299.48l0 -11.0625l1.6875 0l0 1.578125q1.21875 -1.828125 3.515625 -1.828125q1.0 0 1.84375 0.359375q0.84375 0.359375 1.25 0.953125q0.421875 0.578125 0.59375 1.375q0.09375 0.515625 0.09375 1.828125l0 6.796875l-1.875 0l0 -6.734375q0 -1.140625 -0.21875 -1.703125q-0.21875 -0.578125 -0.78125 -0.90625q-0.546875 -0.34375 -1.296875 -0.34375q-1.203125 0 -2.078125 0.765625q-0.859375 0.75 -0.859375 2.875l0 6.046875l-1.875 0zm11.158569 -5.53125q0 -3.078125 1.71875 -4.546875q1.421875 -1.234375 3.46875 -1.234375q2.28125 0 3.71875 1.5q1.453125 1.484375 1.453125 4.125q0 2.140625 -0.640625 3.359375q-0.625 1.21875 -1.859375 1.90625q-1.21875 0.671875 -2.671875 0.671875q-2.3125 0 -3.75 -1.484375q-1.4375 -1.5 -1.4375 -4.296875zm1.9375 0q0 2.125 0.921875 3.1875q0.921875 1.046875 2.328125 1.046875q1.40625 0 2.328125 -1.0625q0.921875 -1.0625 0.921875 -3.234375q0 -2.046875 -0.9375 -3.109375q-0.921875 -1.0625 -2.3125 -1.0625q-1.40625 0 -2.328125 1.0625q-0.921875 1.046875 -0.921875 3.171875zm10.627319 5.53125l0 -11.0625l1.6875 0l0 1.578125q1.2187462 -1.828125 3.5156212 -1.828125q1.0 0 1.84375 0.359375q0.84375 0.359375 1.25 0.953125q0.421875 0.578125 0.59375 1.375q0.09375 0.515625 0.09375 1.828125l0 6.796875l-1.875 0l0 -6.734375q0 -1.140625 -0.21875 -1.703125q-0.21875 -0.578125 -0.78125 -0.90625q-0.546875 -0.34375 -1.296875 -0.34375q-1.203125 0 -2.078125 0.765625q-0.8593712 0.75 -0.8593712 2.875l0 6.046875l-1.875 0zm11.1273155 -4.578125l0 -1.890625l5.765625 0l0 1.890625l-5.765625 0zm8.118057 4.578125l0 -15.265625l11.03125 0l0 1.796875l-9.015625 0l0 4.671875l8.453125 0l0 1.796875l-8.453125 0l0 5.203125l9.375 0l0 1.796875l-11.390625 0zm24.194443 -15.265625l2.03125 0l0 8.8125q0 2.3125 -0.53125 3.671875q-0.515625 1.34375 -1.875 2.203125q-1.359375 0.84375 -3.5625 0.84375q-2.140625 0 -3.515625 -0.734375q-1.359375 -0.75 -1.953125 -2.140625q-0.578125 -1.40625 -0.578125 -3.84375l0 -8.8125l2.03125 0l0 8.8125q0 1.984375 0.359375 2.9375q0.375 0.9375 1.265625 1.453125q0.90625 0.5 2.21875 0.5q2.21875 0 3.15625 -1.0q0.953125 -1.015625 0.953125 -3.890625l0 -8.8125z" fill-rule="nonzero"/><path fill="#000000" d="m211.30533 291.94876q0 -2.703125 0.546875 -4.34375q0.5625 -1.65625 1.65625 -2.546875q1.109375 -0.90625 2.765625 -0.90625q1.234375 0 2.15625 0.5q0.9375 0.484375 1.53125 1.421875q0.609375 0.9375 0.953125 2.28125q0.34375 1.328125 0.34375 3.59375q0 2.6875 -0.5625 4.34375q-0.546875 1.640625 -1.640625 2.546875q-1.09375 0.90625 -2.78125 0.90625q-2.203125 0 -3.46875 -1.59375q-1.5 -1.90625 -1.5 -6.203125zm1.921875 0q0 3.765625 0.875 5.015625q0.890625 1.234375 2.171875 1.234375q1.296875 0 2.171875 -1.25q0.890625 -1.25 0.890625 -5.0q0 -3.765625 -0.890625 -5.0q-0.875 -1.25 -2.1875 -1.25q-1.296875 0 -2.0625 1.09375q-0.96875 1.40625 -0.96875 5.15625zm10.986694 7.53125l0 -2.140625l2.140625 0l0 2.140625l-2.140625 0zm4.878769 -7.53125q0 -2.703125 0.546875 -4.34375q0.5625 -1.65625 1.65625 -2.546875q1.109375 -0.90625 2.765625 -0.90625q1.234375 0 2.15625 0.5q0.9375 0.484375 1.53125 1.421875q0.609375 0.9375 0.953125 2.28125q0.34375 1.328125 0.34375 3.59375q0 2.6875 -0.5625 4.34375q-0.546875 1.640625 -1.640625 2.546875q-1.09375 0.90625 -2.78125 0.90625q-2.203125 0 -3.46875 -1.59375q-1.5 -1.90625 -1.5 -6.203125zm1.921875 0q0 3.765625 0.875 5.015625q0.890625 1.234375 2.171875 1.234375q1.296875 0 2.171875 -1.25q0.890625 -1.25 0.890625 -5.0q0 -3.765625 -0.890625 -5.0q-0.875 -1.25 -2.1875 -1.25q-1.296875 0 -2.0625 1.09375q-0.96875 1.40625 -0.96875 5.15625zm9.939819 3.53125l1.96875 -0.171875q0.21875 1.4375 1.015625 2.171875q0.796875 0.71875 1.921875 0.71875q1.34375 0 2.28125 -1.015625q0.9375 -1.03125 0.9375 -2.71875q0 -1.59375 -0.90625 -2.515625q-0.890625 -0.9375 -2.34375 -0.9375q-0.90625 0 -1.640625 0.421875q-0.734375 0.40625 -1.140625 1.0625l-1.765625 -0.234375l1.484375 -7.84375l7.59375 0l0 1.796875l-6.09375 0l-0.828125 4.09375q1.375 -0.953125 2.890625 -0.953125q2.0 0 3.359375 1.390625q1.375 1.375 1.375 3.5625q0 2.0625 -1.203125 3.578125q-1.46875 1.859375 -4.0 1.859375q-2.09375 0 -3.40625 -1.171875q-1.3125 -1.171875 -1.5 -3.09375z" fill-rule="nonzero"/><path fill="#000000" d="m37.863354 375.7792l0 -15.265625l11.03125 0l0 1.796875l-9.015625 0l0 4.671875l8.453125 0l0 1.796875l-8.453125 0l0 5.203125l9.375 0l0 1.796875l-11.390625 0zm24.194443 -15.265625l2.0312462 0l0 8.8125q0 2.3125 -0.5312462 3.671875q-0.515625 1.34375 -1.875 2.203125q-1.359375 0.84375 -3.5625 0.84375q-2.140625 0 -3.515625 -0.734375q-1.359375 -0.75 -1.953125 -2.140625q-0.578125 -1.40625 -0.578125 -3.84375l0 -8.8125l2.03125 0l0 8.8125q0 1.984375 0.359375 2.9375q0.375 0.9375 1.265625 1.453125q0.90625 0.5 2.21875 0.5q2.21875 0 3.15625 -1.0q0.953125 -1.015625 0.953125 -3.890625l0 -8.8125z" fill-rule="nonzero"/><path fill="#000000" d="m211.30533 368.24796q0 -2.703125 0.546875 -4.34375q0.5625 -1.65625 1.65625 -2.546875q1.109375 -0.90625 2.765625 -0.90625q1.234375 0 2.15625 0.5q0.9375 0.484375 1.53125 1.421875q0.609375 0.9375 0.953125 2.28125q0.34375 1.328125 0.34375 3.59375q0 2.6875 -0.5625 4.34375q-0.546875 1.640625 -1.640625 2.546875q-1.09375 0.90625 -2.78125 0.90625q-2.203125 0 -3.46875 -1.59375q-1.5 -1.90625 -1.5 -6.203125zm1.921875 0q0 3.765625 0.875 5.015625q0.890625 1.234375 2.171875 1.234375q1.296875 0 2.171875 -1.25q0.890625 -1.25 0.890625 -5.0q0 -3.765625 -0.890625 -5.0q-0.875 -1.25 -2.1875 -1.25q-1.296875 0 -2.0625 1.09375q-0.96875 1.40625 -0.96875 5.15625zm10.986694 7.53125l0 -2.140625l2.140625 0l0 2.140625l-2.140625 0zm4.878769 -7.53125q0 -2.703125 0.546875 -4.34375q0.5625 -1.65625 1.65625 -2.546875q1.109375 -0.90625 2.765625 -0.90625q1.234375 0 2.15625 0.5q0.9375 0.484375 1.53125 1.421875q0.609375 0.9375 0.953125 2.28125q0.34375 1.328125 0.34375 3.59375q0 2.6875 -0.5625 4.34375q-0.546875 1.640625 -1.640625 2.546875q-1.09375 0.90625 -2.78125 0.90625q-2.203125 0 -3.46875 -1.59375q-1.5 -1.90625 -1.5 -6.203125zm1.921875 0q0 3.765625 0.875 5.015625q0.890625 1.234375 2.171875 1.234375q1.296875 0 2.171875 -1.25q0.890625 -1.25 0.890625 -5.0q0 -3.765625 -0.890625 -5.0q-0.875 -1.25 -2.1875 -1.25q-1.296875 0 -2.0625 1.09375q-0.96875 1.40625 -0.96875 5.15625zm17.00232 7.53125l-1.875 0l0 -11.9375q-0.6875 0.640625 -1.78125 1.28125q-1.09375 0.640625 -1.96875 0.96875l0 -1.8125q1.5625 -0.734375 2.734375 -1.78125q1.1875 -1.0625 1.671875 -2.046875l1.21875 0l0 15.328125z" fill-rule="nonzero"/><path fill="#000000" d="m37.863354 452.07843l0 -15.265625l11.03125 0l0 1.796875l-9.015625 0l0 4.671875l8.453125 0l0 1.796875l-8.453125 0l0 5.203125l9.375 0l0 1.796875l-11.390625 0zm24.194443 -15.265625l2.0312462 0l0 8.8125q0 2.3125 -0.5312462 3.671875q-0.515625 1.34375 -1.875 2.203125q-1.359375 0.84375 -3.5625 0.84375q-2.140625 0 -3.515625 -0.734375q-1.359375 -0.75 -1.953125 -2.140625q-0.578125 -1.40625 -0.578125 -3.84375l0 -8.8125l2.03125 0l0 8.8125q0 1.984375 0.359375 2.9375q0.375 0.9375 1.265625 1.453125q0.90625 0.5 2.21875 0.5q2.21875 0 3.15625 -1.0q0.953125 -1.015625 0.953125 -3.890625l0 -8.8125z" fill-rule="nonzero"/><path fill="#000000" d="m211.30533 444.54718q0 -2.703125 0.546875 -4.34375q0.5625 -1.65625 1.65625 -2.546875q1.109375 -0.90625 2.765625 -0.90625q1.234375 0 2.15625 0.5q0.9375 0.484375 1.53125 1.421875q0.609375 0.9375 0.953125 2.28125q0.34375 1.328125 0.34375 3.59375q0 2.6875 -0.5625 4.34375q-0.546875 1.640625 -1.640625 2.546875q-1.09375 0.90625 -2.78125 0.90625q-2.203125 0 -3.46875 -1.59375q-1.5 -1.90625 -1.5 -6.203125zm1.921875 0q0 3.765625 0.875 5.015625q0.890625 1.234375 2.171875 1.234375q1.296875 0 2.171875 -1.25q0.890625 -1.25 0.890625 -5.0q0 -3.765625 -0.890625 -5.0q-0.875 -1.25 -2.1875 -1.25q-1.296875 0 -2.0625 1.09375q-0.96875 1.40625 -0.96875 5.15625zm10.986694 7.53125l0 -2.140625l2.140625 0l0 2.140625l-2.140625 0zm4.878769 -7.53125q0 -2.703125 0.546875 -4.34375q0.5625 -1.65625 1.65625 -2.546875q1.109375 -0.90625 2.765625 -0.90625q1.234375 0 2.15625 0.5q0.9375 0.484375 1.53125 1.421875q0.609375 0.9375 0.953125 2.28125q0.34375 1.328125 0.34375 3.59375q0 2.6875 -0.5625 4.34375q-0.546875 1.640625 -1.640625 2.546875q-1.09375 0.90625 -2.78125 0.90625q-2.203125 0 -3.46875 -1.59375q-1.5 -1.90625 -1.5 -6.203125zm1.921875 0q0 3.765625 0.875 5.015625q0.890625 1.234375 2.171875 1.234375q1.296875 0 2.171875 -1.25q0.890625 -1.25 0.890625 -5.0q0 -3.765625 -0.890625 -5.0q-0.875 -1.25 -2.1875 -1.25q-1.296875 0 -2.0625 1.09375q-0.96875 1.40625 -0.96875 5.15625zm15.939819 7.53125l0 -3.65625l-6.625 0l0 -1.71875l6.96875 -9.890625l1.53125 0l0 9.890625l2.0625 0l0 1.71875l-2.0625 0l0 3.65625l-1.875 0zm0 -5.375l0 -6.875l-4.78125 6.875l4.78125 0z" fill-rule="nonzero"/><path fill="#000000" fill-opacity="0.0" d="m415.41602 189.19685l129.16534 0l0 161.60631l-129.16534 0z" fill-rule="evenodd"/><path stroke="#000000" stroke-width="2.0" stroke-linejoin="round" stroke-linecap="butt" d="m415.41602 189.19685l129.16534 0l0 161.60631l-129.16534 0z" fill-rule="evenodd"/><path fill="#000000" d="m425.75977 220.7381l3.546875 0.421875q0.09375 0.625 0.40625 0.859375q0.4375 0.328125 1.390625 0.328125q1.21875 0 1.828125 -0.359375q0.40625 -0.25 0.625 -0.796875q0.140625 -0.375 0.140625 -1.421875l0 -1.71875q-1.390625 1.90625 -3.515625 1.90625q-2.375 0 -3.75 -2.0q-1.09375 -1.578125 -1.09375 -3.9375q0 -2.953125 1.421875 -4.515625q1.421875 -1.5625 3.546875 -1.5625q2.171875 0 3.59375 1.921875l0 -1.65625l2.90625 0l0 10.546875q0 2.078125 -0.34375 3.109375q-0.34375 1.03125 -0.96875 1.609375q-0.609375 0.59375 -1.65625 0.921875q-1.03125 0.328125 -2.609375 0.328125q-2.984375 0 -4.234375 -1.03125q-1.25 -1.015625 -1.25 -2.578125q0 -0.15625 0.015625 -0.375zm2.765625 -6.90625q0 1.875 0.71875 2.75q0.734375 0.859375 1.796875 0.859375q1.140625 0 1.921875 -0.890625q0.796875 -0.890625 0.796875 -2.640625q0 -1.8125 -0.765625 -2.703125q-0.75 -0.890625 -1.890625 -0.890625q-1.125 0 -1.859375 0.875q-0.71875 0.859375 -0.71875 2.640625zm14.339325 6.125l-3.109375 0l0 -11.75l2.875 0l0 1.671875q0.75 -1.1875 1.34375 -1.5625q0.59375 -0.375 1.34375 -0.375q1.0625 0 2.046875 0.59375l-0.96875 2.703125q-0.78125 -0.5 -1.453125 -0.5q-0.65625 0 -1.109375 0.359375q-0.453125 0.359375 -0.71875 1.296875q-0.25 0.9375 -0.25 3.9375l0 3.625zm5.1138 -6.046875q0 -1.546875 0.765625 -2.984375q0.765625 -1.453125 2.15625 -2.21875q1.40625 -0.765625 3.125 -0.765625q2.671875 0 4.375 1.734375q1.703125 1.734375 1.703125 4.375q0 2.671875 -1.71875 4.421875q-1.71875 1.75 -4.328125 1.75q-1.625 0 -3.09375 -0.71875q-1.453125 -0.734375 -2.21875 -2.140625q-0.765625 -1.421875 -0.765625 -3.453125zm3.1875 0.171875q0 1.75 0.828125 2.6875q0.828125 0.921875 2.046875 0.921875q1.21875 0 2.03125 -0.921875q0.828125 -0.9375 0.828125 -2.703125q0 -1.734375 -0.828125 -2.65625q-0.8125 -0.9375 -2.03125 -0.9375q-1.21875 0 -2.046875 0.9375q-0.828125 0.921875 -0.828125 2.671875zm19.10495 5.875l0 -1.765625q-0.640625 0.953125 -1.6875 1.5q-1.046875 0.53125 -2.203125 0.53125q-1.1875 0 -2.125 -0.515625q-0.9375 -0.53125 -1.359375 -1.46875q-0.421875 -0.9375 -0.421875 -2.59375l0 -7.4375l3.109375 0l0 5.40625q0 2.46875 0.171875 3.03125q0.171875 0.5625 0.625 0.890625q0.453125 0.3125 1.140625 0.3125q0.796875 0 1.421875 -0.421875q0.640625 -0.4375 0.875 -1.078125q0.234375 -0.65625 0.234375 -3.1875l0 -4.953125l3.109375 0l0 11.75l-2.890625 0zm6.0112305 -11.75l2.90625 0l0 1.734375q0.5625 -0.890625 1.515625 -1.4375q0.96875 -0.5625 2.140625 -0.5625q2.046875 0 3.46875 1.609375q1.4375 1.59375 1.4375 4.46875q0 2.9375 -1.4375 4.578125q-1.4375 1.625 -3.484375 1.625q-0.96875 0 -1.765625 -0.390625q-0.796875 -0.390625 -1.671875 -1.328125l0 5.921875l-3.109375 0l0 -16.21875zm3.078125 5.671875q0 1.984375 0.78125 2.9375q0.796875 0.9375 1.921875 0.9375q1.078125 0 1.796875 -0.859375q0.71875 -0.875 0.71875 -2.859375q0 -1.84375 -0.734375 -2.734375q-0.734375 -0.90625 -1.84375 -0.90625q-1.125 0 -1.890625 0.890625q-0.75 0.875 -0.75 2.59375zm10.72995 6.078125l0 -16.21875l3.109375 0l0 5.84375q1.4375 -1.640625 3.40625 -1.640625q2.140625 0 3.546875 1.5625q1.40625 1.546875 1.40625 4.453125q0 3.015625 -1.4375 4.640625q-1.4375 1.625 -3.484375 1.625q-1.0 0 -1.984375 -0.5q-0.96875 -0.5 -1.6875 -1.484375l0 1.71875l-2.875 0zm3.078125 -6.125q0 1.828125 0.578125 2.703125q0.8125 1.234375 2.140625 1.234375q1.03125 0 1.75 -0.875q0.734375 -0.890625 0.734375 -2.78125q0 -2.015625 -0.734375 -2.90625q-0.734375 -0.890625 -1.875 -0.890625q-1.109375 0 -1.859375 0.875q-0.734375 0.859375 -0.734375 2.640625zm9.41748 -5.625l3.3125 0l2.796875 8.34375l2.75 -8.34375l3.21875 0l-4.140625 11.3125l-0.75 2.046875q-0.40625 1.03125 -0.78125 1.5625q-0.375 0.546875 -0.859375 0.875q-0.46875 0.34375 -1.171875 0.53125q-0.703125 0.1875 -1.59375 0.1875q-0.890625 0 -1.75 -0.1875l-0.28125 -2.4375q0.734375 0.15625 1.3125 0.15625q1.09375 0 1.609375 -0.640625q0.515625 -0.640625 0.796875 -1.625l-4.46875 -11.78125z" fill-rule="nonzero"/><path fill="#000000" d="m461.86914 251.6631q3.203125 3.484375 5.53125 5.3124847q2.34375 1.8125 4.421875 2.703125l0 1.078125q-2.390625 1.15625 -4.640625 2.953125q-2.234375 1.796875 -5.34375 5.265625l-1.84375 0q2.265625 -4.84375 4.734375 -7.4375l-38.40625 0l0 -2.4375l38.40625 0q-1.828125 -2.3125 -2.546875 -3.4531097q-0.71875 -1.140625 -2.140625 -3.984375l1.828125 0z" fill-rule="nonzero"/><path fill="#000000" d="m426.38477 306.35684l0 -10.203125l-1.765625 0l0 -1.546875l1.765625 0l0 -1.25q0 -1.1875 0.203125 -1.75q0.296875 -0.78125 1.015625 -1.265625q0.734375 -0.484375 2.03125 -0.484375q0.84375 0 1.859375 0.203125l-0.296875 1.734375q-0.625 -0.109375 -1.171875 -0.109375q-0.90625 0 -1.28125 0.390625q-0.375 0.390625 -0.375 1.453125l0 1.078125l2.28125 0l0 1.546875l-2.28125 0l0 10.203125l-1.984375 0zm13.513367 0l0 -1.71875q-1.359375 1.984375 -3.71875 1.984375q-1.046875 0 -1.953125 -0.390625q-0.890625 -0.40625 -1.328125 -1.0q-0.4375 -0.609375 -0.609375 -1.484375q-0.125 -0.59375 -0.125 -1.859375l0 -7.28125l1.984375 0l0 6.515625q0 1.5625 0.125 2.109375q0.1875 0.78125 0.796875 1.234375q0.609375 0.4375 1.5 0.4375q0.90625 0 1.6875 -0.453125q0.78125 -0.46875 1.109375 -1.25q0.328125 -0.796875 0.328125 -2.296875l0 -6.296875l1.984375 0l0 11.75l-1.78125 0zm4.912842 0l0 -11.75l1.78125 0l0 1.671875q1.296875 -1.9375 3.75 -1.9375q1.0625 0 1.953125 0.390625q0.890625 0.375 1.328125 1.0q0.4375 0.609375 0.625 1.46875q0.109375 0.546875 0.109375 1.9375l0 7.21875l-2.0 0l0 -7.140625q0 -1.21875 -0.234375 -1.8125q-0.234375 -0.609375 -0.828125 -0.96875q-0.578125 -0.359375 -1.375 -0.359375q-1.28125 0 -2.203125 0.8125q-0.921875 0.796875 -0.921875 3.046875l0 6.421875l-1.984375 0zm20.256561 -4.296875l1.96875 0.25q-0.328125 2.015625 -1.65625 3.171875q-1.3125 1.140625 -3.234375 1.140625q-2.421875 0 -3.890625 -1.578125q-1.453125 -1.578125 -1.453125 -4.515625q0 -1.90625 0.625 -3.328125q0.625 -1.4375 1.90625 -2.140625q1.296875 -0.71875 2.8125 -0.71875q1.921875 0 3.140625 0.96875q1.21875 0.96875 1.5625 2.75l-1.9375 0.296875q-0.28125 -1.1875 -0.984375 -1.78125q-0.703125 -0.59375 -1.703125 -0.59375q-1.5 0 -2.4375 1.078125q-0.9375 1.078125 -0.9375 3.40625q0 2.375 0.90625 3.453125q0.90625 1.0625 2.359375 1.0625q1.171875 0 1.953125 -0.71875q0.796875 -0.71875 1.0 -2.203125zm8.015625 2.515625l0.28125 1.765625q-0.84375 0.171875 -1.5 0.171875q-1.078125 0 -1.6875 -0.34375q-0.59375 -0.34375 -0.84375 -0.890625q-0.234375 -0.5625 -0.234375 -2.359375l0 -6.765625l-1.46875 0l0 -1.546875l1.46875 0l0 -2.90625l1.984375 -1.203125l0 4.109375l2.0 0l0 1.546875l-2.0 0l0 6.875q0 0.84375 0.09375 1.09375q0.109375 0.25 0.34375 0.390625q0.25 0.140625 0.6875 0.140625q0.328125 0 0.875 -0.078125zm1.9508972 -12.140625l0 -2.296875l2.0 0l0 2.296875l-2.0 0zm0 13.921875l0 -11.75l2.0 0l0 11.75l-2.0 0zm4.283478 -5.875q0 -3.265625 1.8125 -4.828125q1.515625 -1.3125 3.703125 -1.3125q2.421875 0 3.953125 1.59375q1.546875 1.578125 1.546875 4.375q0 2.28125 -0.6875 3.578125q-0.671875 1.296875 -1.984375 2.015625q-1.296875 0.71875 -2.828125 0.71875q-2.46875 0 -4.0 -1.578125q-1.515625 -1.578125 -1.515625 -4.5625zm2.046875 0q0 2.25 0.984375 3.375q0.984375 1.125 2.484375 1.125q1.484375 0 2.46875 -1.125q0.984375 -1.125 0.984375 -3.4375q0 -2.1875 -1.0 -3.296875q-0.984375 -1.125 -2.453125 -1.125q-1.5 0 -2.484375 1.125q-0.984375 1.109375 -0.984375 3.359375zm11.303467 5.875l0 -11.75l1.78125 0l0 1.671875q1.296875 -1.9375 3.75 -1.9375q1.0625 0 1.953125 0.390625q0.890625 0.375 1.328125 1.0q0.4375 0.609375 0.625 1.46875q0.109375 0.546875 0.109375 1.9375l0 7.21875l-2.0 0l0 -7.140625q0 -1.21875 -0.234375 -1.8125q-0.234375 -0.609375 -0.828125 -0.96875q-0.578125 -0.359375 -1.375 -0.359375q-1.28125 0 -2.203125 0.8125q-0.921875 0.796875 -0.921875 3.046875l0 6.421875l-1.984375 0zm13.147186 -9.484375l0 -2.265625l2.265625 0l0 2.265625l-2.265625 0zm0 9.484375l0 -2.265625l2.265625 0l0 2.265625l-2.265625 0z" fill-rule="nonzero"/><path fill="#000000" d="m428.36914 325.38495l-2.828125 -0.5q0.484375 -1.703125 1.640625 -2.515625q1.15625 -0.828125 3.453125 -0.828125q2.078125 0 3.09375 0.5q1.015625 0.484375 1.421875 1.25q0.421875 0.75 0.421875 2.78125l-0.03125 3.625q0 1.546875 0.140625 2.28125q0.15625 0.734375 0.578125 1.578125l-3.078125 0q-0.125 -0.3125 -0.296875 -0.921875q-0.078125 -0.265625 -0.109375 -0.359375q-0.796875 0.765625 -1.71875 1.15625q-0.90625 0.390625 -1.921875 0.390625q-1.828125 0 -2.875 -0.984375q-1.03125 -0.984375 -1.03125 -2.484375q0 -1.0 0.46875 -1.78125q0.484375 -0.78125 1.328125 -1.1875q0.859375 -0.421875 2.484375 -0.734375q2.171875 -0.40625 3.015625 -0.765625l0 -0.296875q0 -0.90625 -0.453125 -1.28125q-0.4375 -0.390625 -1.65625 -0.390625q-0.828125 0 -1.296875 0.328125q-0.46875 0.328125 -0.75 1.140625zm4.15625 2.53125q-0.59375 0.203125 -1.890625 0.484375q-1.296875 0.265625 -1.6875 0.53125q-0.609375 0.4375 -0.609375 1.09375q0 0.65625 0.484375 1.140625q0.484375 0.46875 1.234375 0.46875q0.84375 0 1.609375 -0.5625q0.5625 -0.40625 0.734375 -1.015625q0.125 -0.40625 0.125 -1.515625l0 -0.625zm9.350311 5.640625l-4.734375 -11.75l3.265625 0l2.203125 6.0l0.640625 2.0q0.265625 -0.765625 0.328125 -1.0q0.15625 -0.5 0.328125 -1.0l2.234375 -6.0l3.203125 0l-4.671875 11.75l-2.796875 0zm16.178467 -3.734375l3.09375 0.515625q-0.59375 1.703125 -1.890625 2.59375q-1.28125 0.890625 -3.21875 0.890625q-3.0625 0 -4.546875 -2.0q-1.15625 -1.609375 -1.15625 -4.046875q0 -2.921875 1.515625 -4.578125q1.53125 -1.65625 3.875 -1.65625q2.625 0 4.140625 1.734375q1.515625 1.734375 1.4375 5.296875l-7.78125 0q0.03125 1.390625 0.75 2.15625q0.71875 0.765625 1.796875 0.765625q0.71875 0 1.21875 -0.390625q0.5 -0.40625 0.765625 -1.28125zm0.171875 -3.140625q-0.03125 -1.359375 -0.703125 -2.0625q-0.65625 -0.703125 -1.609375 -0.703125q-1.015625 0 -1.6875 0.75q-0.65625 0.734375 -0.65625 2.015625l4.65625 0zm8.600311 6.875l-3.109375 0l0 -11.75l2.875 0l0 1.671875q0.75 -1.1875 1.34375 -1.5625q0.59375 -0.375 1.34375 -0.375q1.0625 0 2.046875 0.59375l-0.96875 2.703125q-0.78125 -0.5 -1.453125 -0.5q-0.65625 0 -1.109375 0.359375q-0.453125 0.359375 -0.71875 1.296875q-0.25 0.9375 -0.25 3.9375l0 3.625zm8.160675 -8.171875l-2.828125 -0.5q0.484375 -1.703125 1.640625 -2.515625q1.15625 -0.828125 3.453125 -0.828125q2.078125 0 3.09375 0.5q1.015625 0.484375 1.421875 1.25q0.421875 0.75 0.421875 2.78125l-0.03125 3.625q0 1.546875 0.140625 2.28125q0.15625 0.734375 0.578125 1.578125l-3.078125 0q-0.125 -0.3125 -0.296875 -0.921875q-0.078125 -0.265625 -0.109375 -0.359375q-0.796875 0.765625 -1.71875 1.15625q-0.90625 0.390625 -1.921875 0.390625q-1.828125 0 -2.875 -0.984375q-1.03125 -0.984375 -1.03125 -2.484375q0 -1.0 0.46875 -1.78125q0.484375 -0.78125 1.328125 -1.1875q0.859375 -0.421875 2.484375 -0.734375q2.171875 -0.40625 3.015625 -0.765625l0 -0.296875q0 -0.90625 -0.453125 -1.28125q-0.4375 -0.390625 -1.65625 -0.390625q-0.828125 0 -1.296875 0.328125q-0.46875 0.328125 -0.75 1.140625zm4.15625 2.53125q-0.59375 0.203125 -1.890625 0.484375q-1.296875 0.265625 -1.6875 0.53125q-0.609375 0.4375 -0.609375 1.09375q0 0.65625 0.484375 1.140625q0.484375 0.46875 1.234375 0.46875q0.84375 0 1.609375 -0.5625q0.5625 -0.40625 0.734375 -1.015625q0.125 -0.40625 0.125 -1.515625l0 -0.625zm5.8346863 6.421875l3.546875 0.421875q0.09375 0.625 0.40625 0.859375q0.4375 0.328125 1.390625 0.328125q1.21875 0 1.828125 -0.359375q0.40625 -0.25 0.625 -0.796875q0.140625 -0.375 0.140625 -1.421875l0 -1.71875q-1.390625 1.90625 -3.515625 1.90625q-2.375 0 -3.75 -2.0q-1.09375 -1.578125 -1.09375 -3.9375q0 -2.953125 1.421875 -4.515625q1.421875 -1.5625 3.546875 -1.5625q2.171875 0 3.59375 1.921875l0 -1.65625l2.90625 0l0 10.546875q0 2.078125 -0.34375 3.109375q-0.34375 1.03125 -0.96875 1.609375q-0.609375 0.59375 -1.65625 0.921875q-1.03125 0.328125 -2.609375 0.328125q-2.984375 0 -4.234375 -1.03125q-1.25 -1.015625 -1.25 -2.578125q0 -0.15625 0.015625 -0.375zm2.765625 -6.90625q0 1.875 0.71875 2.75q0.734375 0.859375 1.796875 0.859375q1.140625 0 1.921875 -0.890625q0.796875 -0.890625 0.796875 -2.640625q0 -1.8125 -0.765625 -2.703125q-0.75 -0.890625 -1.890625 -0.890625q-1.125 0 -1.859375 0.875q-0.71875 0.859375 -0.71875 2.640625zm18.16748 2.390625l3.09375 0.515625q-0.59375 1.703125 -1.890625 2.59375q-1.28125 0.890625 -3.21875 0.890625q-3.0625 0 -4.546875 -2.0q-1.15625 -1.609375 -1.15625 -4.046875q0 -2.921875 1.515625 -4.578125q1.53125 -1.65625 3.875 -1.65625q2.625 0 4.140625 1.734375q1.515625 1.734375 1.4375 5.296875l-7.78125 0q0.03125 1.390625 0.75 2.15625q0.71875 0.765625 1.796875 0.765625q0.71875 0 1.21875 -0.390625q0.5 -0.40625 0.765625 -1.28125zm0.171875 -3.140625q-0.03125 -1.359375 -0.703125 -2.0625q-0.65625 -0.703125 -1.609375 -0.703125q-1.015625 0 -1.6875 0.75q-0.65625 0.734375 -0.65625 2.015625l4.65625 0z" fill-rule="nonzero"/><path shape-rendering="crispEdges" fill="#eeeeee" d="m584.34644 155.55118l174.23889 0l0 76.29921l-174.23889 0l0 -76.29921z" fill-rule="nonzero"/><path shape-rendering="crispEdges" fill="#eeeeee" d="m758.5853 155.55118l174.23883 0l0 76.29921l-174.23883 0l0 -76.29921z" fill-rule="nonzero"/><path shape-rendering="crispEdges" fill="#f4cccc" d="m584.34644 231.85039l174.23889 0l0 76.29921l-174.23889 0l0 -76.29921z" fill-rule="nonzero"/><path shape-rendering="crispEdges" fill="#cfe2f3" d="m584.34644 308.1496l174.23889 0l0 76.299225l-174.23889 0l0 -76.299225z" fill-rule="nonzero"/><path stroke="#9e9e9e" stroke-width="3.0" stroke-linecap="butt" d="m584.34644 154.05249l0 231.89502" fill-rule="nonzero"/><path stroke="#9e9e9e" stroke-width="3.0" stroke-linecap="butt" d="m758.5853 154.05249l0 231.89502" fill-rule="nonzero"/><path stroke="#9e9e9e" stroke-width="3.0" stroke-linecap="butt" d="m932.82416 154.05249l0 231.89502" fill-rule="nonzero"/><path stroke="#9e9e9e" stroke-width="3.0" stroke-linecap="butt" d="m582.8478 155.55118l351.47504 0" fill-rule="nonzero"/><path stroke="#9e9e9e" stroke-width="3.0" stroke-linecap="butt" d="m582.8478 231.85039l351.47504 0" fill-rule="nonzero"/><path stroke="#9e9e9e" stroke-width="3.0" stroke-linecap="butt" d="m582.8478 308.1496l351.47504 0" fill-rule="nonzero"/><path stroke="#9e9e9e" stroke-width="3.0" stroke-linecap="butt" d="m582.8478 384.44882l351.47504 0" fill-rule="nonzero"/><path fill="#000000" d="m604.65894 179.4218l3.0 0.9375q-0.6875 2.5 -2.296875 3.71875q-1.59375 1.21875 -4.046875 1.21875q-3.046875 0 -5.0 -2.078125q-1.953125 -2.078125 -1.953125 -5.6875q0 -3.8125 1.96875 -5.921875q1.96875 -2.109375 5.171875 -2.109375q2.796875 0 4.546875 1.65625q1.046875 0.984375 1.5625 2.8125l-3.046875 0.734375q-0.28125 -1.1875 -1.140625 -1.875q-0.84375 -0.6875 -2.078125 -0.6875q-1.703125 0 -2.765625 1.21875q-1.046875 1.21875 -1.046875 3.9375q0 2.90625 1.03125 4.140625q1.046875 1.21875 2.71875 1.21875q1.234375 0 2.109375 -0.78125q0.890625 -0.78125 1.265625 -2.453125zm4.949402 -0.078125q0 -1.453125 0.71875 -2.8125q0.71875 -1.375 2.03125 -2.09375q1.3125 -0.71875 2.9375 -0.71875q2.515625 0 4.109375 1.640625q1.609375 1.625 1.609375 4.109375q0 2.515625 -1.625 4.171875q-1.609375 1.640625 -4.0625 1.640625q-1.53125 0 -2.90625 -0.6875q-1.375 -0.6875 -2.09375 -2.015625q-0.71875 -1.328125 -0.71875 -3.234375zm3.0 0.15625q0 1.640625 0.78125 2.515625q0.78125 0.875 1.921875 0.875q1.140625 0 1.921875 -0.875q0.78125 -0.875 0.78125 -2.53125q0 -1.625 -0.78125 -2.5q-0.78125 -0.875 -1.921875 -0.875q-1.140625 0 -1.921875 0.875q-0.78125 0.875 -0.78125 2.515625zm17.981201 5.53125l0 -1.65625q-0.609375 0.890625 -1.59375 1.40625q-0.984375 0.5 -2.078125 0.5q-1.109375 0 -2.0 -0.484375q-0.875 -0.5 -1.28125 -1.375q-0.390625 -0.890625 -0.390625 -2.453125l0 -7.0l2.921875 0l0 5.078125q0 2.34375 0.15625 2.875q0.171875 0.515625 0.59375 0.828125q0.4375 0.296875 1.09375 0.296875q0.75 0 1.34375 -0.40625q0.59375 -0.40625 0.8125 -1.015625q0.21875 -0.609375 0.21875 -2.984375l0 -4.671875l2.921875 0l0 11.0625l-2.71875 0zm15.809326 0l-2.921875 0l0 -5.640625q0 -1.796875 -0.1875 -2.3125q-0.1875 -0.53125 -0.609375 -0.828125q-0.421875 -0.296875 -1.015625 -0.296875q-0.765625 0 -1.375 0.421875q-0.59375 0.421875 -0.828125 1.109375q-0.21875 0.6875 -0.21875 2.53125l0 5.015625l-2.921875 0l0 -11.0625l2.71875 0l0 1.625q1.4375 -1.875 3.640625 -1.875q0.96875 0 1.765625 0.359375q0.8125 0.34375 1.21875 0.890625q0.40625 0.53125 0.5625 1.21875q0.171875 0.6875 0.171875 1.96875l0 6.875zm8.043701 -11.0625l0 2.328125l-2.0 0l0 4.46875q0 1.34375 0.046875 1.578125q0.0625 0.21875 0.265625 0.375q0.203125 0.140625 0.5 0.140625q0.40625 0 1.171875 -0.28125l0.25 2.265625q-1.015625 0.4375 -2.3125 0.4375q-0.796875 0 -1.4375 -0.265625q-0.625 -0.265625 -0.921875 -0.6875q-0.296875 -0.421875 -0.40625 -1.140625q-0.09375 -0.515625 -0.09375 -2.0625l0 -4.828125l-1.34375 0l0 -2.328125l1.34375 0l0 -2.1875l2.9375 -1.71875l0 3.90625l2.0 0zm4.821167 11.0625l-2.921875 0l0 -11.0625l2.71875 0l0 1.578125q0.703125 -1.125 1.25 -1.46875q0.5625 -0.359375 1.265625 -0.359375q1.0 0 1.9375 0.5625l-0.90625 2.546875q-0.75 -0.484375 -1.375 -0.484375q-0.625 0 -1.046875 0.34375q-0.421875 0.328125 -0.671875 1.21875q-0.25 0.890625 -0.25 3.703125l0 3.421875zm4.112549 -11.0625l3.125 0l2.640625 7.859375l2.578125 -7.859375l3.03125 0l-3.90625 10.640625l-0.6875 1.9375q-0.390625 0.96875 -0.75 1.46875q-0.34375 0.515625 -0.796875 0.828125q-0.453125 0.328125 -1.109375 0.5q-0.65625 0.171875 -1.5 0.171875q-0.84375 0 -1.65625 -0.171875l-0.25 -2.296875q0.6875 0.140625 1.234375 0.140625q1.015625 0 1.5 -0.609375q0.5 -0.59375 0.765625 -1.515625l-4.21875 -11.09375zm26.302979 5.453125l0 -2.578125l6.640625 0l0 6.078125q-0.96875 0.9375 -2.8125 1.65625q-1.828125 0.71875 -3.71875 0.71875q-2.390625 0 -4.171875 -1.0q-1.78125 -1.015625 -2.6875 -2.875q-0.890625 -1.875 -0.890625 -4.078125q0 -2.390625 1.0 -4.234375q1.0 -1.859375 2.9375 -2.84375q1.46875 -0.765625 3.65625 -0.765625q2.828125 0 4.421875 1.203125q1.609375 1.1875 2.0625 3.296875l-3.0625 0.5625q-0.3125 -1.125 -1.203125 -1.765625q-0.890625 -0.65625 -2.21875 -0.65625q-2.03125 0 -3.21875 1.28125q-1.1875 1.28125 -1.1875 3.796875q0 2.71875 1.203125 4.078125q1.203125 1.359375 3.171875 1.359375q0.96875 0 1.9375 -0.375q0.96875 -0.390625 1.671875 -0.921875l0 -1.9375l-3.53125 0zm12.261597 5.609375l-2.921875 0l0 -11.0625l2.71875 0l0 1.578125q0.703125 -1.125 1.25 -1.46875q0.5625 -0.359375 1.265625 -0.359375q1.0 0 1.9375 0.5625l-0.90625 2.546875q-0.75 -0.484375 -1.375 -0.484375q-0.625 0 -1.046875 0.34375q-0.421875 0.328125 -0.671875 1.21875q-0.25 0.890625 -0.25 3.703125l0 3.421875zm4.831299 -5.6875q0 -1.453125 0.71875 -2.8125q0.71875 -1.375 2.03125 -2.09375q1.3125 -0.71875 2.9375 -0.71875q2.515625 0 4.109375 1.640625q1.609375 1.625 1.609375 4.109375q0 2.515625 -1.625 4.171875q-1.609375 1.640625 -4.0625 1.640625q-1.53125 0 -2.90625 -0.6875q-1.375 -0.6875 -2.09375 -2.015625q-0.71875 -1.328125 -0.71875 -3.234375zm3.0 0.15625q0 1.640625 0.78125 2.515625q0.78125 0.875 1.921875 0.875q1.140625 0 1.921875 -0.875q0.78125 -0.875 0.78125 -2.53125q0 -1.625 -0.78125 -2.5q-0.78125 -0.875 -1.921875 -0.875q-1.140625 0 -1.921875 0.875q-0.78125 0.875 -0.78125 2.515625zm17.981201 5.53125l0 -1.65625q-0.609375 0.890625 -1.59375 1.40625q-0.984375 0.5 -2.078125 0.5q-1.109375 0 -2.0 -0.484375q-0.875 -0.5 -1.28125 -1.375q-0.390625 -0.890625 -0.390625 -2.453125l0 -7.0l2.921875 0l0 5.078125q0 2.34375 0.15625 2.875q0.171875 0.515625 0.59375 0.828125q0.4375 0.296875 1.09375 0.296875q0.75 0 1.34375 -0.40625q0.59375 -0.40625 0.8125 -1.015625q0.21875 -0.609375 0.21875 -2.984375l0 -4.671875l2.921875 0l0 11.0625l-2.71875 0zm5.668701 -11.0625l2.71875 0l0 1.625q0.53125 -0.828125 1.4375 -1.34375q0.90625 -0.53125 2.015625 -0.53125q1.921875 0 3.265625 1.515625q1.34375 1.5 1.34375 4.203125q0 2.765625 -1.359375 4.3125q-1.34375 1.53125 -3.265625 1.53125q-0.921875 0 -1.671875 -0.359375q-0.734375 -0.375 -1.5625 -1.25l0 5.5625l-2.921875 0l0 -15.265625zm2.890625 5.34375q0 1.859375 0.734375 2.75q0.75 0.890625 1.8125 0.890625q1.015625 0 1.6875 -0.8125q0.6875 -0.8125 0.6875 -2.6875q0 -1.734375 -0.703125 -2.578125q-0.703125 -0.84375 -1.734375 -0.84375q-1.0625 0 -1.78125 0.828125q-0.703125 0.828125 -0.703125 2.453125z" fill-rule="nonzero"/><path fill="#000000" d="m769.1166 169.76555l3.078125 0l0 8.265625q0 1.96875 0.125 2.546875q0.1875 0.9375 0.9375 1.515625q0.75 0.5625 2.03125 0.5625q1.3125 0 1.984375 -0.53125q0.671875 -0.546875 0.796875 -1.328125q0.140625 -0.78125 0.140625 -2.59375l0 -8.4375l3.078125 0l0 8.015625q0 2.75 -0.25 3.890625q-0.25 1.125 -0.921875 1.90625q-0.671875 0.78125 -1.796875 1.25q-1.125 0.46875 -2.9375 0.46875q-2.1875 0 -3.3125 -0.5q-1.125 -0.515625 -1.78125 -1.3125q-0.65625 -0.8125 -0.875 -1.703125q-0.296875 -1.3125 -0.296875 -3.875l0 -8.140625zm25.464966 15.265625l-2.921875 0l0 -5.640625q0 -1.796875 -0.1875 -2.3125q-0.1875 -0.53125 -0.609375 -0.828125q-0.421875 -0.296875 -1.015625 -0.296875q-0.765625 0 -1.375 0.421875q-0.59375 0.421875 -0.828125 1.109375q-0.21875 0.6875 -0.21875 2.53125l0 5.015625l-2.921875 0l0 -11.0625l2.71875 0l0 1.625q1.4375 -1.875 3.640625 -1.875q0.96875 0 1.765625 0.359375q0.8125 0.34375 1.21875 0.890625q0.40625 0.53125 0.5625 1.21875q0.171875 0.6875 0.171875 1.96875l0 6.875zm9.371826 -3.515625l2.90625 0.484375q-0.546875 1.609375 -1.765625 2.453125q-1.21875 0.828125 -3.03125 0.828125q-2.890625 0 -4.28125 -1.890625q-1.09375 -1.5 -1.09375 -3.8125q0 -2.75 1.4375 -4.296875q1.4375 -1.5625 3.640625 -1.5625q2.46875 0 3.890625 1.640625q1.421875 1.625 1.359375 4.984375l-7.328125 0q0.03125 1.296875 0.703125 2.03125q0.6875 0.71875 1.703125 0.71875q0.6875 0 1.15625 -0.375q0.46875 -0.375 0.703125 -1.203125zm0.171875 -2.96875q-0.03125 -1.265625 -0.65625 -1.921875q-0.625 -0.671875 -1.53125 -0.671875q-0.953125 0 -1.578125 0.703125q-0.625 0.703125 -0.609375 1.890625l4.375 0zm5.0648193 -4.578125l2.703125 0l0 1.515625q1.4375 -1.765625 3.4375 -1.765625q1.0625 0 1.84375 0.4375q0.78125 0.4375 1.28125 1.328125q0.734375 -0.890625 1.578125 -1.328125q0.84375 -0.4375 1.796875 -0.4375q1.21875 0 2.0625 0.5q0.84375 0.484375 1.265625 1.453125q0.296875 0.703125 0.296875 2.28125l0 7.078125l-2.921875 0l0 -6.328125q0 -1.640625 -0.3125 -2.125q-0.40625 -0.625 -1.25 -0.625q-0.609375 0 -1.15625 0.375q-0.53125 0.375 -0.78125 1.109375q-0.234375 0.71875 -0.234375 2.28125l0 5.3125l-2.921875 0l0 -6.0625q0 -1.609375 -0.15625 -2.078125q-0.15625 -0.46875 -0.484375 -0.703125q-0.328125 -0.234375 -0.890625 -0.234375q-0.671875 0 -1.21875 0.375q-0.546875 0.359375 -0.78125 1.046875q-0.234375 0.6875 -0.234375 2.28125l0 5.375l-2.921875 0l0 -11.0625zm19.104736 0l2.71875 0l0 1.625q0.53125 -0.828125 1.4375 -1.34375q0.90625 -0.53125 2.015625 -0.53125q1.921875 0 3.265625 1.515625q1.34375 1.5 1.34375 4.203125q0 2.765625 -1.359375 4.3125q-1.34375 1.53125 -3.265625 1.53125q-0.921875 0 -1.671875 -0.359375q-0.734375 -0.375 -1.5625 -1.25l0 5.5625l-2.921875 0l0 -15.265625zm2.890625 5.34375q0 1.859375 0.734375 2.75q0.75 0.890625 1.8125 0.890625q1.015625 0 1.6875 -0.8125q0.6875 -0.8125 0.6875 -2.6875q0 -1.734375 -0.703125 -2.578125q-0.703125 -0.84375 -1.734375 -0.84375q-1.0625 0 -1.78125 0.828125q-0.703125 0.828125 -0.703125 2.453125zm10.215576 5.71875l0 -15.265625l2.921875 0l0 15.265625l-2.921875 0zm5.253784 -5.6875q0 -1.453125 0.71875 -2.8125q0.71875 -1.375 2.03125 -2.09375q1.3125 -0.71875 2.9375 -0.71875q2.515625 0 4.109375 1.640625q1.609375 1.625 1.609375 4.109375q0 2.515625 -1.625 4.171875q-1.609375 1.640625 -4.0625 1.640625q-1.53125 0 -2.90625 -0.6875q-1.375 -0.6875 -2.09375 -2.015625q-0.71875 -1.328125 -0.71875 -3.234375zm3.0 0.15625q0 1.640625 0.78125 2.515625q0.78125 0.875 1.921875 0.875q1.140625 0 1.921875 -0.875q0.78125 -0.875 0.78125 -2.53125q0 -1.625 -0.78125 -2.5q-0.78125 -0.875 -1.921875 -0.875q-1.140625 0 -1.921875 0.875q-0.78125 0.875 -0.78125 2.515625zm9.309326 -5.53125l3.125 0l2.640625 7.859375l2.578125 -7.859375l3.03125 0l-3.90625 10.640625l-0.6875 1.9375q-0.390625 0.96875 -0.75 1.46875q-0.34375 0.515625 -0.796875 0.828125q-0.453125 0.328125 -1.109375 0.5q-0.65625 0.171875 -1.5 0.171875q-0.84375 0 -1.65625 -0.171875l-0.25 -2.296875q0.6875 0.140625 1.234375 0.140625q1.015625 0 1.5 -0.609375q0.5 -0.59375 0.765625 -1.515625l-4.21875 -11.09375zm13.033569 0l2.703125 0l0 1.515625q1.4375 -1.765625 3.4375 -1.765625q1.0625 0 1.84375 0.4375q0.78125 0.4375 1.28125 1.328125q0.734375 -0.890625 1.578125 -1.328125q0.84375 -0.4375 1.796875 -0.4375q1.21875 0 2.0625 0.5q0.84375 0.484375 1.265625 1.453125q0.296875 0.703125 0.296875 2.28125l0 7.078125l-2.921875 0l0 -6.328125q0 -1.640625 -0.3125 -2.125q-0.40625 -0.625 -1.25 -0.625q-0.609375 0 -1.15625 0.375q-0.53125 0.375 -0.78125 1.109375q-0.234375 0.71875 -0.234375 2.28125l0 5.3125l-2.921875 0l0 -6.0625q0 -1.609375 -0.15625 -2.078125q-0.15625 -0.46875 -0.484375 -0.703125q-0.328125 -0.234375 -0.890625 -0.234375q-0.671875 0 -1.21875 0.375q-0.546875 0.359375 -0.78125 1.046875q-0.234375 0.6875 -0.234375 2.28125l0 5.375l-2.921875 0l0 -11.0625zm25.589111 7.546875l2.90625 0.484375q-0.546875 1.609375 -1.765625 2.453125q-1.21875 0.828125 -3.03125 0.828125q-2.890625 0 -4.28125 -1.890625q-1.09375 -1.5 -1.09375 -3.8125q0 -2.75 1.4375 -4.296875q1.4375 -1.5625 3.640625 -1.5625q2.46875 0 3.890625 1.640625q1.421875 1.625 1.359375 4.984375l-7.328125 0q0.03125 1.296875 0.703125 2.03125q0.6875 0.71875 1.703125 0.71875q0.6875 0 1.15625 -0.375q0.46875 -0.375 0.703125 -1.203125zm0.171875 -2.96875q-0.03125 -1.265625 -0.65625 -1.921875q-0.625 -0.671875 -1.53125 -0.671875q-0.953125 0 -1.578125 0.703125q-0.625 0.703125 -0.609375 1.890625l4.375 0zm15.346069 6.484375l-2.921875 0l0 -5.640625q0 -1.796875 -0.1875 -2.3125q-0.1875 -0.53125 -0.609375 -0.828125q-0.421875 -0.296875 -1.015625 -0.296875q-0.765625 0 -1.375 0.421875q-0.59375 0.421875 -0.828125 1.109375q-0.21875 0.6875 -0.21875 2.53125l0 5.015625l-2.921875 0l0 -11.0625l2.71875 0l0 1.625q1.4375 -1.875 3.640625 -1.875q0.96875 0 1.765625 0.359375q0.8125 0.34375 1.21875 0.890625q0.40625 0.53125 0.5625 1.21875q0.171875 0.6875 0.171875 1.96875l0 6.875zm8.043701 -11.0625l0 2.328125l-2.0 0l0 4.46875q0 1.34375 0.046875 1.578125q0.0625 0.21875 0.265625 0.375q0.203125 0.140625 0.5 0.140625q0.40625 0 1.171875 -0.28125l0.25 2.265625q-1.015625 0.4375 -2.3125 0.4375q-0.796875 0 -1.4375 -0.265625q-0.625 -0.265625 -0.921875 -0.6875q-0.296875 -0.421875 -0.40625 -1.140625q-0.09375 -0.515625 -0.09375 -2.0625l0 -4.828125l-1.34375 0l0 -2.328125l1.34375 0l0 -2.1875l2.9375 -1.71875l0 3.90625l2.0 0z" fill-rule="nonzero"/><path fill="#000000" d="m769.1478 210.63118l0 -15.265625l6.484375 0q2.453125 0 3.5625 0.421875q1.109375 0.40625 1.765625 1.453125q0.671875 1.046875 0.671875 2.40625q0 1.71875 -1.015625 2.84375q-1.0 1.109375 -3.015625 1.40625q1.0 0.578125 1.640625 1.28125q0.65625 0.6875 1.765625 2.46875l1.859375 2.984375l-3.6875 0l-2.21875 -3.328125q-1.1875 -1.78125 -1.625 -2.234375q-0.4375 -0.46875 -0.9375 -0.640625q-0.484375 -0.171875 -1.546875 -0.171875l-0.625 0l0 6.375l-3.078125 0zm3.078125 -8.8125l2.28125 0q2.21875 0 2.765625 -0.1875q0.5625 -0.1875 0.875 -0.640625q0.3125 -0.46875 0.3125 -1.140625q0 -0.78125 -0.421875 -1.25q-0.40625 -0.46875 -1.15625 -0.59375q-0.375 -0.0625 -2.25 -0.0625l-2.40625 0l0 3.875zm14.480591 1.125l-2.65625 -0.484375q0.453125 -1.59375 1.546875 -2.359375q1.09375 -0.78125 3.25 -0.78125q1.953125 0 2.90625 0.46875q0.96875 0.453125 1.359375 1.171875q0.390625 0.71875 0.390625 2.625l-0.03125 3.40625q0 1.46875 0.125 2.15625q0.140625 0.6875 0.53125 1.484375l-2.890625 0q-0.109375 -0.296875 -0.28125 -0.859375q-0.078125 -0.265625 -0.109375 -0.34375q-0.75 0.71875 -1.609375 1.09375q-0.84375 0.359375 -1.8125 0.359375q-1.703125 0 -2.6875 -0.921875q-0.984375 -0.9375 -0.984375 -2.34375q0 -0.9375 0.4375 -1.671875q0.453125 -0.734375 1.25 -1.125q0.8125 -0.390625 2.34375 -0.6875q2.046875 -0.390625 2.84375 -0.71875l0 -0.296875q0 -0.84375 -0.421875 -1.203125q-0.421875 -0.359375 -1.578125 -0.359375q-0.78125 0 -1.21875 0.3125q-0.4375 0.3125 -0.703125 1.078125zm3.921875 2.375q-0.5625 0.1875 -1.78125 0.453125q-1.21875 0.25 -1.59375 0.5q-0.578125 0.40625 -0.578125 1.03125q0 0.625 0.453125 1.078125q0.46875 0.4375 1.171875 0.4375q0.796875 0 1.515625 -0.515625q0.53125 -0.40625 0.6875 -0.96875q0.125 -0.375 0.125 -1.4375l0 -0.578125zm10.830444 -5.75l0 2.328125l-2.0 0l0 4.46875q0 1.34375 0.046875 1.578125q0.0625 0.21875 0.265625 0.375q0.203125 0.140625 0.5 0.140625q0.40625 0 1.171875 -0.28125l0.25 2.265625q-1.015625 0.4375 -2.3125 0.4375q-0.796875 0 -1.4375 -0.265625q-0.625 -0.265625 -0.921875 -0.6875q-0.296875 -0.421875 -0.40625 -1.140625q-0.09375 -0.515625 -0.09375 -2.0625l0 -4.828125l-1.34375 0l0 -2.328125l1.34375 0l0 -2.1875l2.9375 -1.71875l0 3.90625l2.0 0zm8.430542 7.546875l2.90625 0.484375q-0.546875 1.609375 -1.765625 2.453125q-1.21875 0.828125 -3.03125 0.828125q-2.890625 0 -4.28125 -1.890625q-1.09375 -1.5 -1.09375 -3.8125q0 -2.75 1.4375 -4.296875q1.4375 -1.5625 3.640625 -1.5625q2.46875 0 3.890625 1.640625q1.421875 1.625 1.359375 4.984375l-7.328125 0q0.03125 1.296875 0.703125 2.03125q0.6875 0.71875 1.703125 0.71875q0.6875 0 1.15625 -0.375q0.46875 -0.375 0.703125 -1.203125zm0.171875 -2.96875q-0.03125 -1.265625 -0.65625 -1.921875q-0.625 -0.671875 -1.53125 -0.671875q-0.953125 0 -1.578125 0.703125q-0.625 0.703125 -0.609375 1.890625l4.375 0z" fill-rule="nonzero"/><path fill="#000000" d="m595.03394 261.33038l0 -15.26561l11.03125 0l0 1.796875l-9.015625 0l0 4.671875l8.453125 0l0 1.796875l-8.453125 0l0 5.2031097l9.375 0l0 1.796875l-11.390625 0zm24.194458 -15.26561l2.03125 0l0 8.8125q0 2.3124847 -0.53125 3.6718597q-0.515625 1.34375 -1.875 2.203125q-1.359375 0.84375 -3.5625 0.84375q-2.140625 0 -3.515625 -0.734375q-1.359375 -0.75 -1.953125 -2.140625q-0.578125 -1.40625 -0.578125 -3.8437347l0 -8.8125l2.03125 0l0 8.8125q0 1.9843597 0.359375 2.9374847q0.375 0.9375 1.265625 1.453125q0.90625 0.5 2.21875 0.5q2.21875 0 3.15625 -1.0q0.953125 -1.015625 0.953125 -3.8906097l0 -8.8125z" fill-rule="nonzero"/><path fill="#000000" d="m768.47595 253.79915q0 -2.703125 0.546875 -4.34375q0.5625 -1.65625 1.65625 -2.546875q1.109375 -0.90625 2.765625 -0.90625q1.234375 0 2.15625 0.5q0.9375 0.484375 1.53125 1.421875q0.609375 0.9375 0.953125 2.28125q0.34375 1.328125 0.34375 3.59375q0 2.6874847 -0.5625 4.3437347q-0.546875 1.640625 -1.640625 2.546875q-1.09375 0.90625 -2.78125 0.90625q-2.203125 0 -3.46875 -1.59375q-1.5 -1.90625 -1.5 -6.2031097zm1.921875 0q0 3.7656097 0.875 5.0156097q0.890625 1.234375 2.171875 1.234375q1.296875 0 2.171875 -1.25q0.890625 -1.25 0.890625 -4.9999847q0 -3.765625 -0.890625 -5.0q-0.875 -1.25 -2.1875 -1.25q-1.296875 0 -2.0625 1.09375q-0.96875 1.40625 -0.96875 5.15625zm10.986694 7.5312347l0 -2.140625l2.140625 0l0 2.140625l-2.140625 0zm4.878723 -7.5312347q0 -2.703125 0.546875 -4.34375q0.5625 -1.65625 1.65625 -2.546875q1.109375 -0.90625 2.765625 -0.90625q1.234375 0 2.15625 0.5q0.9375 0.484375 1.53125 1.421875q0.609375 0.9375 0.953125 2.28125q0.34375 1.328125 0.34375 3.59375q0 2.6874847 -0.5625 4.3437347q-0.546875 1.640625 -1.640625 2.546875q-1.09375 0.90625 -2.78125 0.90625q-2.203125 0 -3.46875 -1.59375q-1.5 -1.90625 -1.5 -6.2031097zm1.921875 0q0 3.7656097 0.875 5.0156097q0.890625 1.234375 2.171875 1.234375q1.296875 0 2.171875 -1.25q0.890625 -1.25 0.890625 -4.9999847q0 -3.765625 -0.890625 -5.0q-0.875 -1.25 -2.1875 -1.25q-1.296875 0 -2.0625 1.09375q-0.96875 1.40625 -0.96875 5.15625zm19.78357 5.7343597l0 1.796875l-10.09375 0q-0.015625 -0.671875 0.21875 -1.296875q0.390625 -1.03125 1.234375 -2.03125q0.859375 -1.0 2.453125 -2.3124847q2.5 -2.046875 3.375 -3.234375q0.875 -1.203125 0.875 -2.25q0 -1.125 -0.796875 -1.890625q-0.796875 -0.765625 -2.078125 -0.765625q-1.359375 0 -2.171875 0.8125q-0.8125 0.8125 -0.828125 2.25l-1.921875 -0.1875q0.203125 -2.15625 1.484375 -3.28125q1.296875 -1.140625 3.46875 -1.140625q2.203125 0 3.484375 1.21875q1.28125 1.21875 1.28125 3.015625q0 0.921875 -0.375 1.8125q-0.375 0.875 -1.25 1.859375q-0.859375 0.96875 -2.890625 2.6874847q-1.6875 1.40625 -2.171875 1.921875q-0.46875 0.5 -0.78125 1.015625l7.484375 0zm2.1429443 -11.468735l0 -1.796875l9.875 0l0 1.453125q-1.453125 1.546875 -2.890625 4.125q-1.421875 2.5625 -2.203125 5.2812347q-0.5625 1.921875 -0.71875 4.203125l-1.9375 0q0.03125 -1.796875 0.703125 -4.34375q0.6875 -2.5624847 1.953125 -4.9218597q1.265625 -2.375 2.6875 -4.0l-7.46875 0z" fill-rule="nonzero"/><path fill="#000000" d="m594.7527 337.6296l0 -11.0625l1.6875 0l0 1.578125q1.21875 -1.828125 3.515625 -1.828125q1.0 0 1.84375 0.359375q0.84375 0.359375 1.25 0.953125q0.421875 0.578125 0.59375 1.375q0.09375 0.515625 0.09375 1.828125l0 6.796875l-1.875 0l0 -6.734375q0 -1.140625 -0.21875 -1.703125q-0.21875 -0.578125 -0.78125 -0.90625q-0.546875 -0.34375 -1.296875 -0.34375q-1.203125 0 -2.078125 0.765625q-0.859375 0.75 -0.859375 2.875l0 6.046875l-1.875 0zm11.158569 -5.53125q0 -3.078125 1.71875 -4.546875q1.421875 -1.234375 3.46875 -1.234375q2.28125 0 3.71875 1.5q1.453125 1.484375 1.453125 4.125q0 2.140625 -0.640625 3.359375q-0.625 1.21875 -1.859375 1.90625q-1.21875 0.671875 -2.671875 0.671875q-2.3125 0 -3.75 -1.484375q-1.4375 -1.5 -1.4375 -4.296875zm1.9375 0q0 2.125 0.921875 3.1875q0.921875 1.046875 2.328125 1.046875q1.40625 0 2.328125 -1.0625q0.921875 -1.0625 0.921875 -3.234375q0 -2.046875 -0.9375 -3.109375q-0.921875 -1.0625 -2.3125 -1.0625q-1.40625 0 -2.328125 1.0625q-0.921875 1.046875 -0.921875 3.171875zm10.627319 5.53125l0 -11.0625l1.6875 0l0 1.578125q1.21875 -1.828125 3.515625 -1.828125q1.0 0 1.84375 0.359375q0.84375 0.359375 1.25 0.953125q0.421875 0.578125 0.59375 1.375q0.09375 0.515625 0.09375 1.828125l0 6.796875l-1.875 0l0 -6.734375q0 -1.140625 -0.21875 -1.703125q-0.21875 -0.578125 -0.78125 -0.90625q-0.546875 -0.34375 -1.296875 -0.34375q-1.203125 0 -2.078125 0.765625q-0.859375 0.75 -0.859375 2.875l0 6.046875l-1.875 0zm11.127319 -4.578125l0 -1.890625l5.765625 0l0 1.890625l-5.765625 0zm8.118103 4.578125l0 -15.265625l11.03125 0l0 1.796875l-9.015625 0l0 4.671875l8.453125 0l0 1.796875l-8.453125 0l0 5.203125l9.375 0l0 1.796875l-11.390625 0zm24.194397 -15.265625l2.03125 0l0 8.8125q0 2.3125 -0.53125 3.671875q-0.515625 1.34375 -1.875 2.203125q-1.359375 0.84375 -3.5625 0.84375q-2.140625 0 -3.515625 -0.734375q-1.359375 -0.75 -1.953125 -2.140625q-0.578125 -1.40625 -0.578125 -3.84375l0 -8.8125l2.03125 0l0 8.8125q0 1.984375 0.359375 2.9375q0.375 0.9375 1.265625 1.453125q0.90625 0.5 2.21875 0.5q2.21875 0 3.15625 -1.0q0.953125 -1.015625 0.953125 -3.890625l0 -8.8125z" fill-rule="nonzero"/><path fill="#000000" d="m768.47595 330.09836q0 -2.703125 0.546875 -4.34375q0.5625 -1.65625 1.65625 -2.546875q1.109375 -0.90625 2.765625 -0.90625q1.234375 0 2.15625 0.5q0.9375 0.484375 1.53125 1.421875q0.609375 0.9375 0.953125 2.28125q0.34375 1.328125 0.34375 3.59375q0 2.6875 -0.5625 4.34375q-0.546875 1.640625 -1.640625 2.546875q-1.09375 0.90625 -2.78125 0.90625q-2.203125 0 -3.46875 -1.59375q-1.5 -1.90625 -1.5 -6.203125zm1.921875 0q0 3.765625 0.875 5.015625q0.890625 1.234375 2.171875 1.234375q1.296875 0 2.171875 -1.25q0.890625 -1.25 0.890625 -5.0q0 -3.765625 -0.890625 -5.0q-0.875 -1.25 -2.1875 -1.25q-1.296875 0 -2.0625 1.09375q-0.96875 1.40625 -0.96875 5.15625zm10.986694 7.53125l0 -2.140625l2.140625 0l0 2.140625l-2.140625 0zm4.878723 -7.53125q0 -2.703125 0.546875 -4.34375q0.5625 -1.65625 1.65625 -2.546875q1.109375 -0.90625 2.765625 -0.90625q1.234375 0 2.15625 0.5q0.9375 0.484375 1.53125 1.421875q0.609375 0.9375 0.953125 2.28125q0.34375 1.328125 0.34375 3.59375q0 2.6875 -0.5625 4.34375q-0.546875 1.640625 -1.640625 2.546875q-1.09375 0.90625 -2.78125 0.90625q-2.203125 0 -3.46875 -1.59375q-1.5 -1.90625 -1.5 -6.203125zm1.921875 0q0 3.765625 0.875 5.015625q0.890625 1.234375 2.171875 1.234375q1.296875 0 2.171875 -1.25q0.890625 -1.25 0.890625 -5.0q0 -3.765625 -0.890625 -5.0q-0.875 -1.25 -2.1875 -1.25q-1.296875 0 -2.0625 1.09375q-0.96875 1.40625 -0.96875 5.15625zm9.939819 3.5l1.875 -0.25q0.328125 1.59375 1.09375 2.296875q0.78125 0.703125 1.90625 0.703125q1.3125 0 2.21875 -0.90625q0.921875 -0.921875 0.921875 -2.28125q0 -1.296875 -0.84375 -2.125q-0.84375 -0.84375 -2.140625 -0.84375q-0.53125 0 -1.328125 0.203125l0.203125 -1.640625q0.1875 0.015625 0.3125 0.015625q1.1875 0 2.140625 -0.625q0.96875 -0.625 0.96875 -1.921875q0 -1.03125 -0.703125 -1.703125q-0.6875 -0.671875 -1.796875 -0.671875q-1.09375 0 -1.828125 0.6875q-0.71875 0.6875 -0.9375 2.0625l-1.875 -0.34375q0.34375 -1.875 1.5625 -2.90625q1.21875 -1.046875 3.03125 -1.046875q1.25 0 2.296875 0.546875q1.0625 0.53125 1.609375 1.453125q0.5625 0.921875 0.5625 1.96875q0 0.984375 -0.53125 1.796875q-0.53125 0.8125 -1.5625 1.296875q1.34375 0.3125 2.09375 1.296875q0.75 0.984375 0.75 2.453125q0 2.0 -1.453125 3.390625q-1.453125 1.390625 -3.6875 1.390625q-2.015625 0 -3.34375 -1.1875q-1.328125 -1.203125 -1.515625 -3.109375zm11.861694 0.03125l1.96875 -0.171875q0.21875 1.4375 1.015625 2.171875q0.796875 0.71875 1.921875 0.71875q1.34375 0 2.28125 -1.015625q0.9375 -1.03125 0.9375 -2.71875q0 -1.59375 -0.90625 -2.515625q-0.890625 -0.9375 -2.34375 -0.9375q-0.90625 0 -1.640625 0.421875q-0.734375 0.40625 -1.140625 1.0625l-1.765625 -0.234375l1.484375 -7.84375l7.59375 0l0 1.796875l-6.09375 0l-0.828125 4.09375q1.375 -0.953125 2.890625 -0.953125q2.0 0 3.359375 1.390625q1.375 1.375 1.375 3.5625q0 2.0625 -1.203125 3.578125q-1.46875 1.859375 -4.0 1.859375q-2.09375 0 -3.40625 -1.171875q-1.3125 -1.171875 -1.5 -3.09375z" fill-rule="nonzero"/></g></svg>