<svg version="1.1" viewBox="0.0 0.0 960.0 540.0" fill="none" stroke="none" stroke-linecap="square" stroke-miterlimit="10" xmlns:xlink="http://www.w3.org/1999/xlink" xmlns="http://www.w3.org/2000/svg"><clipPath id="g229a3867043_0_0.0"><path d="m0 0l960.0 0l0 540.0l-960.0 0l0 -540.0z" clip-rule="nonzero"/></clipPath><g clip-path="url(#g229a3867043_0_0.0)"><path fill="#ffffff" d="m0 0l960.0 0l0 540.0l-960.0 0z" fill-rule="evenodd"/><path shape-rendering="crispEdges" fill="#eeeeee" d="m34.08399 41.102364l287.00787 0l0 76.29921l-287.00787 0l0 -76.29921z" fill-rule="nonzero"/><path shape-rendering="crispEdges" fill="#f4cccc" d="m34.08399 117.40157l287.00787 0l0 76.29922l-287.00787 0l0 -76.29922z" fill-rule="nonzero"/><path shape-rendering="crispEdges" fill="#cfe2f3" d="m34.08399 193.70079l287.00787 0l0 76.29921l-287.00787 0l0 -76.29921z" fill-rule="nonzero"/><path shape-rendering="crispEdges" fill="#cfe2f3" d="m34.08399 270.0l287.00787 0l0 76.299225l-287.00787 0l0 -76.299225z" fill-rule="nonzero"/><path shape-rendering="crispEdges" fill="#f4cccc" d="m34.08399 346.29922l287.00787 0l0 76.299194l-287.00787 0l0 -76.299194z" fill-rule="nonzero"/><path shape-rendering="crispEdges" fill="#f4cccc" d="m34.08399 422.59842l287.00787 0l0 76.299225l-287.00787 0l0 -76.299225z" fill-rule="nonzero"/><path stroke="#9e9e9e" stroke-width="3.0" stroke-linecap="butt" d="m34.08399 39.603676l0 460.79266" fill-rule="nonzero"/><path stroke="#9e9e9e" stroke-width="3.0" stroke-linecap="butt" d="m321.09186 39.603676l0 460.79266" fill-rule="nonzero"/><path stroke="#9e9e9e" stroke-width="3.0" stroke-linecap="butt" d="m32.5853 41.102364l290.00525 0" fill-rule="nonzero"/><path stroke="#9e9e9e" stroke-width="3.0" stroke-linecap="butt" d="m32.5853 117.40157l290.00525 0" fill-rule="nonzero"/><path stroke="#9e9e9e" stroke-width="3.0" stroke-linecap="butt" d="m32.5853 193.70079l290.00525 0" fill-rule="nonzero"/><path stroke="#9e9e9e" stroke-width="3.0" stroke-linecap="butt" d="m32.5853 270.0l290.00525 0" fill-rule="nonzero"/><path stroke="#9e9e9e" stroke-width="3.0" stroke-linecap="butt" d="m32.5853 346.29922l290.00525 0" fill-rule="nonzero"/><path stroke="#9e9e9e" stroke-width="3.0" stroke-linecap="butt" d="m32.5853 422.59842l290.00525 0" fill-rule="nonzero"/><path stroke="#9e9e9e" stroke-width="3.0" stroke-linecap="butt" d="m32.5853 498.89764l290.00525 0" fill-rule="nonzero"/><path fill="#000000" d="m60.77149 73.33674l4.671879 1.46875q-1.078125 3.90625 -3.5781288 5.8125q-2.484375 1.890625 -6.328125 1.890625q-4.75 0 -7.8125 -3.25q-3.0625 -3.25 -3.0625 -8.875q0 -5.953125 3.078125 -9.25q3.078125 -3.296875 8.078125 -3.296875q4.390625 0 7.125 2.59375q1.6250038 1.53125 2.4375038 4.390625l-4.765629 1.140625q-0.421875 -1.859375 -1.765625 -2.921875q-1.34375 -1.078125 -3.265625 -1.078125q-2.65625 0 -4.3125 1.90625q-1.640625 1.890625 -1.640625 6.15625q0 4.53125 1.625 6.453125q1.625 1.921875 4.234375 1.921875q1.921875 0 3.296875 -1.21875q1.390625 -1.234375 1.984375 -3.84375zm7.709141 -0.125q0 -2.265625 1.125 -4.390625q1.125 -2.140625 3.1875 -3.265625q2.0625 -1.125 4.59375 -1.125q3.921875 0 6.421875 2.546875q2.515625 2.546875 2.515625 6.4375q0 3.921875 -2.53125 6.5q-2.53125 2.578125 -6.375 2.578125q-2.375 0 -4.53125 -1.0625q-2.15625 -1.078125 -3.28125 -3.15625q-1.125 -2.078125 -1.125 -5.0625zm4.6875 0.25q0 2.578125 1.21875 3.9375q1.234375 1.359375 3.015625 1.359375q1.796875 0 3.0 -1.359375q1.21875 -1.359375 1.21875 -3.96875q0 -2.546875 -1.21875 -3.90625q-1.203125 -1.375 -3.0 -1.375q-1.78125 0 -3.015625 1.375q-1.21875 1.359375 -1.21875 3.9375zm28.108154 8.640625l0 -2.59375q-0.9375 1.390625 -2.484375 2.1875q-1.53125 0.796875 -3.234375 0.796875q-1.75 0 -3.140625 -0.765625q-1.375 -0.765625 -2.0 -2.140625q-0.609375 -1.390625 -0.609375 -3.828125l0 -10.9375l4.578125 0l0 7.9375q0 3.640625 0.25 4.46875q0.25 0.828125 0.90625 1.3125q0.671875 0.46875 1.703125 0.46875q1.171875 0 2.09375 -0.640625q0.9375 -0.640625 1.265625 -1.59375q0.34375 -0.953125 0.34375 -4.65625l0 -7.296875l4.578125 0l0 17.28125l-4.25 0zm24.701904 0l-4.5625 0l0 -8.8125q0 -2.8125 -0.296875 -3.625q-0.296875 -0.828125 -0.953125 -1.28125q-0.65625 -0.453125 -1.59375 -0.453125q-1.1875 0 -2.140625 0.65625q-0.9375 0.640625 -1.28125 1.71875q-0.34375 1.078125 -0.34375 3.96875l0 7.828125l-4.578125 0l0 -17.28125l4.25 0l0 2.53125q2.265625 -2.921875 5.6875 -2.921875q1.515625 0 2.765625 0.546875q1.265625 0.546875 1.90625 1.390625q0.640625 0.84375 0.890625 1.921875q0.25 1.078125 0.25 3.078125l0 10.734375zm12.561272 -17.28125l0 3.640625l-3.125 0l0 6.96875q0 2.109375 0.09375 2.46875q0.09375 0.34375 0.40625 0.578125q0.3125 0.21875 0.78125 0.21875q0.625 0 1.828125 -0.4375l0.390625 3.546875q-1.59375 0.6875 -3.609375 0.6875q-1.234375 0 -2.234375 -0.40625q-0.984375 -0.421875 -1.453125 -1.078125q-0.46875 -0.65625 -0.640625 -1.78125q-0.140625 -0.796875 -0.140625 -3.234375l0 -7.53125l-2.109375 0l0 -3.640625l2.109375 0l0 -3.4375l4.578125 -2.671875l0 6.109375l3.125 0zm7.551651 17.28125l-4.5625 0l0 -17.28125l4.234375 0l0 2.453125q1.09375 -1.734375 1.96875 -2.28125q0.875 -0.5625 1.96875 -0.5625q1.5625 0 3.015625 0.859375l-1.40625 3.984375q-1.15625 -0.75 -2.15625 -0.75q-0.953125 0 -1.625 0.53125q-0.671875 0.53125 -1.0625 1.921875q-0.375 1.375 -0.375 5.78125l0 5.34375zm6.438736 -17.28125l4.859375 0l4.140625 12.265625l4.03125 -12.265625l4.734375 0l-6.109375 16.625l-1.078125 3.015625q-0.609375 1.515625 -1.15625 2.3125q-0.546875 0.796875 -1.25 1.28125q-0.703125 0.5 -1.75 0.78125q-1.03125 0.28125 -2.328125 0.28125q-1.3125 0 -2.59375 -0.28125l-0.40625 -3.578125q1.078125 0.21875 1.9375 0.21875q1.59375 0 2.359375 -0.9375q0.765625 -0.9375 1.171875 -2.390625l-6.5625 -17.328125z" fill-rule="nonzero"/><path fill="#000000" d="m44.58399 150.7297l2.96875 -0.25q0.21875 1.78125 0.984375 2.9375q0.78125 1.140625 2.40625 1.859375q1.625 0.703125 3.65625 0.703125q1.8125 0 3.1875 -0.53125q1.390625 -0.546875 2.0625 -1.484375q0.671875 -0.9375 0.671875 -2.046875q0 -1.109375 -0.65625 -1.953125q-0.640625 -0.84375 -2.140625 -1.40625q-0.953125 -0.375 -4.25 -1.15625q-3.28125 -0.796875 -4.59375 -1.5q-1.71875 -0.890625 -2.5625 -2.21875q-0.828125 -1.328125 -0.828125 -2.96875q0 -1.8125 1.015625 -3.375q1.03125 -1.578125 3.0 -2.390625q1.96875 -0.8125 4.390625 -0.8125q2.640625 0 4.671875 0.859375q2.03125 0.84375 3.109375 2.515625q1.09375 1.65625 1.171875 3.75l-3.015625 0.234375q-0.25 -2.265625 -1.65625 -3.421875q-1.40625 -1.15625 -4.15625 -1.15625q-2.859375 0 -4.171875 1.0625q-1.3125 1.046875 -1.3125 2.515625q0 1.296875 0.921875 2.125q0.921875 0.828125 4.765625 1.703125q3.84375 0.859375 5.28125 1.515625q2.078125 0.953125 3.0625 2.4375q1.0 1.46875 1.0 3.390625q0 1.90625 -1.09375 3.59375q-1.078125 1.671875 -3.125 2.609375q-2.046875 0.9375 -4.59375 0.9375q-3.25 0 -5.4375 -0.9375q-2.1875 -0.953125 -3.4375 -2.84375q-1.234375 -1.890625 -1.296875 -4.296875zm22.932728 14.296875l0 -23.90625l2.65625 0l0 2.25q0.953125 -1.328125 2.140625 -1.984375q1.1875 -0.65625 2.875 -0.65625q2.21875 0 3.90625 1.140625q1.6875 1.140625 2.546875 3.21875q0.875 2.0625 0.875 4.546875q0 2.640625 -0.953125 4.765625q-0.953125 2.125 -2.765625 3.265625q-1.8125 1.125 -3.8125 1.125q-1.46875 0 -2.640625 -0.609375q-1.15625 -0.625 -1.90625 -1.578125l0 8.421875l-2.921875 0zm2.640625 -15.171875q0 3.34375 1.34375 4.9375q1.359375 1.59375 3.28125 1.59375q1.953125 0 3.34375 -1.65625q1.390625 -1.65625 1.390625 -5.109375q0 -3.3125 -1.359375 -4.953125q-1.359375 -1.640625 -3.25 -1.640625q-1.859375 0 -3.3125 1.75q-1.4375 1.75 -1.4375 5.078125zm27.160522 6.421875q-1.625 1.375 -3.125 1.953125q-1.5 0.5625 -3.234375 0.5625q-2.84375 0 -4.375 -1.390625q-1.53125 -1.390625 -1.53125 -3.5625q0 -1.265625 0.578125 -2.3125q0.578125 -1.046875 1.515625 -1.671875q0.9375 -0.640625 2.109375 -0.96875q0.859375 -0.234375 2.59375 -0.4375q3.546875 -0.421875 5.234375 -1.015625q0.015625 -0.609375 0.015625 -0.765625q0 -1.78125 -0.828125 -2.515625q-1.125 -1.0 -3.34375 -1.0q-2.0625 0 -3.046875 0.734375q-0.984375 0.71875 -1.453125 2.546875l-2.875 -0.390625q0.390625 -1.828125 1.28125 -2.953125q0.90625 -1.140625 2.59375 -1.75q1.703125 -0.609375 3.921875 -0.609375q2.21875 0 3.59375 0.53125q1.390625 0.515625 2.03125 1.3125q0.65625 0.78125 0.921875 1.984375q0.140625 0.75 0.140625 2.703125l0 3.90625q0 4.078125 0.1875 5.15625q0.1875 1.078125 0.75 2.078125l-3.0625 0q-0.453125 -0.90625 -0.59375 -2.125zm-0.234375 -6.546875q-1.59375 0.65625 -4.78125 1.109375q-1.8125 0.25 -2.5625 0.578125q-0.75 0.328125 -1.15625 0.953125q-0.40625 0.625 -0.40625 1.390625q0 1.171875 0.890625 1.953125q0.890625 0.78125 2.59375 0.78125q1.6875 0 3.0 -0.734375q1.328125 -0.75 1.953125 -2.03125q0.46875 -0.984375 0.46875 -2.921875l0 -1.078125zm7.5198975 -11.8125l0 -3.375l2.921875 0l0 3.375l-2.921875 0zm0 20.484375l0 -17.28125l2.921875 0l0 17.28125l-2.921875 0zm7.3888245 0l0 -17.28125l2.625 0l0 2.453125q1.90625 -2.84375 5.5 -2.84375q1.5625 0 2.875 0.5625q1.3125 0.5625 1.953125 1.46875q0.65625 0.90625 0.921875 2.171875q0.15625 0.8125 0.15625 2.84375l0 10.625l-2.921875 0l0 -10.515625q0 -1.78125 -0.34375 -2.671875q-0.34375 -0.890625 -1.21875 -1.421875q-0.859375 -0.53125 -2.03125 -0.53125q-1.875 0 -3.234375 1.1875q-1.359375 1.1875 -1.359375 4.515625l0 9.4375l-2.921875 0z" fill-rule="nonzero"/><path fill="#000000" d="m45.662113 234.70079l0 -23.859375l9.0 0q2.375 0 3.625 0.234375q1.75 0.28125 2.9375 1.109375q1.1875 0.828125 1.90625 2.3125q0.734375 1.46875 0.734375 3.25q0 3.046875 -1.9375 5.15625q-1.9375 2.09375 -7.0 2.09375l-6.109375 0l0 9.703125l-3.15625 0zm3.15625 -12.515625l6.15625 0q3.0625 0 4.34375 -1.140625q1.296875 -1.140625 1.296875 -3.203125q0 -1.5 -0.765625 -2.5625q-0.75 -1.0625 -1.984375 -1.40625q-0.796875 -0.21875 -2.953125 -0.21875l-6.09375 0l0 8.53125zm17.604603 3.875q0 -4.796875 2.671875 -7.109375q2.21875 -1.921875 5.421875 -1.921875q3.578125 0 5.828125 2.34375q2.265625 2.328125 2.265625 6.4375q0 3.34375 -1.0 5.265625q-1.0 1.90625 -2.921875 2.96875q-1.90625 1.046875 -4.171875 1.046875q-3.625 0 -5.859375 -2.328125q-2.234375 -2.328125 -2.234375 -6.703125zm3.015625 0q0 3.3125 1.4375 4.96875q1.453125 1.65625 3.640625 1.65625q2.1875 0 3.625 -1.65625q1.453125 -1.671875 1.453125 -5.0625q0 -3.203125 -1.453125 -4.859375q-1.453125 -1.65625 -3.625 -1.65625q-2.1875 0 -3.640625 1.640625q-1.4375 1.640625 -1.4375 4.96875zm16.582397 8.640625l0 -17.28125l2.625 0l0 2.625q1.015625 -1.84375 1.859375 -2.421875q0.859375 -0.59375 1.890625 -0.59375q1.484375 0 3.0 0.9375l-1.0 2.71875q-1.078125 -0.625 -2.15625 -0.625q-0.953125 0 -1.71875 0.578125q-0.765625 0.578125 -1.09375 1.59375q-0.484375 1.5625 -0.484375 3.421875l0 9.046875l-2.921875 0zm17.520401 -2.625l0.421875 2.59375q-1.234375 0.265625 -2.21875 0.265625q-1.59375 0 -2.46875 -0.5q-0.875 -0.515625 -1.234375 -1.328125q-0.359375 -0.828125 -0.359375 -3.46875l0 -9.9375l-2.15625 0l0 -2.28125l2.15625 0l0 -4.28125l2.90625 -1.75l0 6.03125l2.953125 0l0 2.28125l-2.953125 0l0 10.109375q0 1.25 0.15625 1.609375q0.15625 0.359375 0.5 0.578125q0.359375 0.203125 1.015625 0.203125q0.484375 0 1.28125 -0.125zm14.181503 2.625l0 -2.53125q-2.015625 2.921875 -5.46875 2.921875q-1.53125 0 -2.859375 -0.578125q-1.328125 -0.59375 -1.96875 -1.484375q-0.640625 -0.890625 -0.90625 -2.171875q-0.1875 -0.859375 -0.1875 -2.734375l0 -10.703125l2.9375 0l0 9.578125q0 2.296875 0.171875 3.09375q0.28125 1.15625 1.171875 1.828125q0.90625 0.65625 2.21875 0.65625q1.3125 0 2.46875 -0.671875q1.15625 -0.6875 1.640625 -1.84375q0.484375 -1.171875 0.484375 -3.375l0 -9.265625l2.921875 0l0 17.28125l-2.625 0zm6.6761475 1.4375l2.84375 0.421875q0.1875 1.3125 0.9999924 1.921875q1.09375 0.8125 2.984375 0.8125q2.03125 0 3.125 -0.8125q1.109375 -0.8125 1.5 -2.28125q0.234375 -0.890625 0.21875 -3.765625q-1.921875 2.265625 -4.78125 2.265625q-3.5624924 0 -5.5156174 -2.5625q-1.953125 -2.578125 -1.953125 -6.171875q0 -2.484375 0.890625 -4.5625q0.890625 -2.09375 2.59375 -3.234375q1.7031174 -1.140625 3.9999924 -1.140625q3.0625 0 5.046875 2.46875l0 -2.078125l2.703125 0l0 14.9375q0 4.03125 -0.828125 5.71875q-0.828125 1.6875 -2.609375 2.65625q-1.78125 0.984375 -4.375 0.984375q-3.09375 0 -4.9999924 -1.390625q-1.90625 -1.390625 -1.84375 -4.1875zm2.421875 -10.390625q0 3.40625 1.3437424 4.96875q1.359375 1.5625 3.390625 1.5625q2.03125 0 3.390625 -1.546875q1.375 -1.5625 1.375 -4.890625q0 -3.171875 -1.421875 -4.78125q-1.40625 -1.609375 -3.390625 -1.609375q-1.953125 0 -3.328125 1.59375q-1.3593674 1.578125 -1.3593674 4.703125zm27.92614 6.828125q-1.625 1.375 -3.125 1.953125q-1.5 0.5625 -3.234375 0.5625q-2.84375 0 -4.375 -1.390625q-1.53125 -1.390625 -1.53125 -3.5625q0 -1.265625 0.578125 -2.3125q0.578125 -1.046875 1.515625 -1.671875q0.9375 -0.640625 2.109375 -0.96875q0.859375 -0.234375 2.59375 -0.4375q3.546875 -0.421875 5.234375 -1.015625q0.015625 -0.609375 0.015625 -0.765625q0 -1.78125 -0.828125 -2.515625q-1.125 -1.0 -3.34375 -1.0q-2.0625 0 -3.046875 0.734375q-0.984375 0.71875 -1.453125 2.546875l-2.875 -0.390625q0.390625 -1.828125 1.28125 -2.953125q0.90625 -1.140625 2.59375 -1.75q1.703125 -0.609375 3.921875 -0.609375q2.21875 0 3.59375 0.53125q1.390625 0.515625 2.03125 1.3125q0.65625 0.78125 0.921875 1.984375q0.140625 0.75 0.140625 2.703125l0 3.90625q0 4.078125 0.1875 5.15625q0.1875 1.078125 0.75 2.078125l-3.0625 0q-0.453125 -0.90625 -0.59375 -2.125zm-0.234375 -6.546875q-1.59375 0.65625 -4.78125 1.109375q-1.8125 0.25 -2.5625 0.578125q-0.75 0.328125 -1.15625 0.953125q-0.40625 0.625 -0.40625 1.390625q0 1.171875 0.890625 1.953125q0.890625 0.78125 2.59375 0.78125q1.6875 0 3.0 -0.734375q1.328125 -0.75 1.953125 -2.03125q0.46875 -0.984375 0.46875 -2.921875l0 -1.078125zm7.4261475 8.671875l0 -23.859375l2.9375 0l0 23.859375l-2.9375 0z" fill-rule="nonzero"/><path fill="#000000" d="m45.662113 311.0l0 -23.859375l9.0 0q2.375 0 3.625 0.234375q1.75 0.28125 2.9375 1.109375q1.1875 0.828125 1.90625 2.3125q0.734375 1.46875 0.734375 3.25q0 3.046875 -1.9375 5.15625q-1.9375 2.09375 -7.0 2.09375l-6.109375 0l0 9.703125l-3.15625 0zm3.15625 -12.515625l6.15625 0q3.0625 0 4.34375 -1.140625q1.296875 -1.140625 1.296875 -3.203125q0 -1.5 -0.765625 -2.5625q-0.75 -1.0625 -1.984375 -1.40625q-0.796875 -0.21875 -2.953125 -0.21875l-6.09375 0l0 8.53125zm17.604603 3.875q0 -4.796875 2.671875 -7.109375q2.21875 -1.921875 5.421875 -1.921875q3.578125 0 5.828125 2.34375q2.265625 2.328125 2.265625 6.4375q0 3.34375 -1.0 5.265625q-1.0 1.90625 -2.921875 2.96875q-1.90625 1.046875 -4.171875 1.046875q-3.625 0 -5.859375 -2.328125q-2.234375 -2.328125 -2.234375 -6.703125zm3.015625 0q0 3.3125 1.4375 4.96875q1.453125 1.65625 3.640625 1.65625q2.1875 0 3.625 -1.65625q1.453125 -1.671875 1.453125 -5.0625q0 -3.203125 -1.453125 -4.859375q-1.453125 -1.65625 -3.625 -1.65625q-2.1875 0 -3.640625 1.640625q-1.4375 1.640625 -1.4375 4.96875zm16.582397 8.640625l0 -17.28125l2.625 0l0 2.625q1.015625 -1.84375 1.859375 -2.421875q0.859375 -0.59375 1.890625 -0.59375q1.484375 0 3.0 0.9375l-1.0 2.71875q-1.078125 -0.625 -2.15625 -0.625q-0.953125 0 -1.71875 0.578125q-0.765625 0.578125 -1.09375 1.59375q-0.484375 1.5625 -0.484375 3.421875l0 9.046875l-2.921875 0zm17.520401 -2.625l0.421875 2.59375q-1.234375 0.265625 -2.21875 0.265625q-1.59375 0 -2.46875 -0.5q-0.875 -0.515625 -1.234375 -1.328125q-0.359375 -0.828125 -0.359375 -3.46875l0 -9.9375l-2.15625 0l0 -2.28125l2.15625 0l0 -4.28125l2.90625 -1.75l0 6.03125l2.953125 0l0 2.28125l-2.953125 0l0 10.109375q0 1.25 0.15625 1.609375q0.15625 0.359375 0.5 0.578125q0.359375 0.203125 1.015625 0.203125q0.484375 0 1.28125 -0.125zm14.181503 2.625l0 -2.53125q-2.015625 2.921875 -5.46875 2.921875q-1.53125 0 -2.859375 -0.578125q-1.328125 -0.59375 -1.96875 -1.484375q-0.640625 -0.890625 -0.90625 -2.171875q-0.1875 -0.859375 -0.1875 -2.734375l0 -10.703125l2.9375 0l0 9.578125q0 2.296875 0.171875 3.09375q0.28125 1.15625 1.171875 1.828125q0.90625 0.65625 2.21875 0.65625q1.3125 0 2.46875 -0.671875q1.15625 -0.6875 1.640625 -1.84375q0.484375 -1.171875 0.484375 -3.375l0 -9.265625l2.921875 0l0 17.28125l-2.625 0zm6.6761475 1.4375l2.84375 0.421875q0.1875 1.3125 0.9999924 1.921875q1.09375 0.8125 2.984375 0.8125q2.03125 0 3.125 -0.8125q1.109375 -0.8125 1.5 -2.28125q0.234375 -0.890625 0.21875 -3.765625q-1.921875 2.265625 -4.78125 2.265625q-3.5624924 0 -5.5156174 -2.5625q-1.953125 -2.578125 -1.953125 -6.171875q0 -2.484375 0.890625 -4.5625q0.890625 -2.09375 2.59375 -3.234375q1.7031174 -1.140625 3.9999924 -1.140625q3.0625 0 5.046875 2.46875l0 -2.078125l2.703125 0l0 14.9375q0 4.03125 -0.828125 5.71875q-0.828125 1.6875 -2.609375 2.65625q-1.78125 0.984375 -4.375 0.984375q-3.09375 0 -4.9999924 -1.390625q-1.90625 -1.390625 -1.84375 -4.1875zm2.421875 -10.390625q0 3.40625 1.3437424 4.96875q1.359375 1.5625 3.390625 1.5625q2.03125 0 3.390625 -1.546875q1.375 -1.5625 1.375 -4.890625q0 -3.171875 -1.421875 -4.78125q-1.40625 -1.609375 -3.390625 -1.609375q-1.953125 0 -3.328125 1.59375q-1.3593674 1.578125 -1.3593674 4.703125zm27.92614 6.828125q-1.625 1.375 -3.125 1.953125q-1.5 0.5625 -3.234375 0.5625q-2.84375 0 -4.375 -1.390625q-1.53125 -1.390625 -1.53125 -3.5625q0 -1.265625 0.578125 -2.3125q0.578125 -1.046875 1.515625 -1.671875q0.9375 -0.640625 2.109375 -0.96875q0.859375 -0.234375 2.59375 -0.4375q3.546875 -0.421875 5.234375 -1.015625q0.015625 -0.609375 0.015625 -0.765625q0 -1.78125 -0.828125 -2.515625q-1.125 -1.0 -3.34375 -1.0q-2.0625 0 -3.046875 0.734375q-0.984375 0.71875 -1.453125 2.546875l-2.875 -0.390625q0.390625 -1.828125 1.28125 -2.953125q0.90625 -1.140625 2.59375 -1.75q1.703125 -0.609375 3.921875 -0.609375q2.21875 0 3.59375 0.53125q1.390625 0.515625 2.03125 1.3125q0.65625 0.78125 0.921875 1.984375q0.140625 0.75 0.140625 2.703125l0 3.90625q0 4.078125 0.1875 5.15625q0.1875 1.078125 0.75 2.078125l-3.0625 0q-0.453125 -0.90625 -0.59375 -2.125zm-0.234375 -6.546875q-1.59375 0.65625 -4.78125 1.109375q-1.8125 0.25 -2.5625 0.578125q-0.75 0.328125 -1.15625 0.953125q-0.40625 0.625 -0.40625 1.390625q0 1.171875 0.890625 1.953125q0.890625 0.78125 2.59375 0.78125q1.6875 0 3.0 -0.734375q1.328125 -0.75 1.953125 -2.03125q0.46875 -0.984375 0.46875 -2.921875l0 -1.078125zm7.4261475 8.671875l0 -23.859375l2.9375 0l0 23.859375l-2.9375 0z" fill-rule="nonzero"/><path fill="#000000" d="m44.58399 379.62735l2.96875 -0.25q0.21875 1.78125 0.984375 2.9375q0.78125 1.140625 2.40625 1.859375q1.625 0.703125 3.65625 0.703125q1.8125 0 3.1875 -0.53125q1.390625 -0.546875 2.0625 -1.484375q0.671875 -0.9375 0.671875 -2.046875q0 -1.109375 -0.65625 -1.953125q-0.640625 -0.84375 -2.140625 -1.40625q-0.953125 -0.375 -4.25 -1.15625q-3.28125 -0.796875 -4.59375 -1.5q-1.71875 -0.890625 -2.5625 -2.21875q-0.828125 -1.328125 -0.828125 -2.96875q0 -1.8125 1.015625 -3.375q1.03125 -1.578125 3.0 -2.390625q1.96875 -0.8125 4.390625 -0.8125q2.640625 0 4.671875 0.859375q2.03125 0.84375 3.109375 2.515625q1.09375 1.65625 1.171875 3.75l-3.015625 0.234375q-0.25 -2.265625 -1.65625 -3.421875q-1.40625 -1.15625 -4.15625 -1.15625q-2.859375 0 -4.171875 1.0625q-1.3125 1.046875 -1.3125 2.515625q0 1.296875 0.921875 2.125q0.921875 0.828125 4.765625 1.703125q3.84375 0.859375 5.28125 1.515625q2.078125 0.953125 3.0625 2.4375q1.0 1.46875 1.0 3.390625q0 1.90625 -1.09375 3.59375q-1.078125 1.671875 -3.125 2.609375q-2.046875 0.9375 -4.59375 0.9375q-3.25 0 -5.4375 -0.9375q-2.1875 -0.953125 -3.4375 -2.84375q-1.234375 -1.890625 -1.296875 -4.296875zm22.932728 14.296875l0 -23.90625l2.65625 0l0 2.25q0.953125 -1.328125 2.140625 -1.984375q1.1875 -0.65625 2.875 -0.65625q2.21875 0 3.90625 1.140625q1.6875 1.140625 2.546875 3.21875q0.875 2.0625 0.875 4.546875q0 2.640625 -0.953125 4.765625q-0.953125 2.125 -2.765625 3.265625q-1.8125 1.125 -3.8125 1.125q-1.46875 0 -2.640625 -0.609375q-1.15625 -0.625 -1.90625 -1.578125l0 8.421875l-2.921875 0zm2.640625 -15.171875q0 3.34375 1.34375 4.9375q1.359375 1.59375 3.28125 1.59375q1.953125 0 3.34375 -1.65625q1.390625 -1.65625 1.390625 -5.109375q0 -3.3125 -1.359375 -4.953125q-1.359375 -1.640625 -3.25 -1.640625q-1.859375 0 -3.3125 1.75q-1.4375 1.75 -1.4375 5.078125zm27.160522 6.421875q-1.625 1.375 -3.125 1.953125q-1.5 0.5625 -3.234375 0.5625q-2.84375 0 -4.375 -1.390625q-1.53125 -1.390625 -1.53125 -3.5625q0 -1.265625 0.578125 -2.3125q0.578125 -1.046875 1.515625 -1.671875q0.9375 -0.640625 2.109375 -0.96875q0.859375 -0.234375 2.59375 -0.4375q3.546875 -0.421875 5.234375 -1.015625q0.015625 -0.609375 0.015625 -0.765625q0 -1.78125 -0.828125 -2.515625q-1.125 -1.0 -3.34375 -1.0q-2.0625 0 -3.046875 0.734375q-0.984375 0.71875 -1.453125 2.546875l-2.875 -0.390625q0.390625 -1.828125 1.28125 -2.953125q0.90625 -1.140625 2.59375 -1.75q1.703125 -0.609375 3.921875 -0.609375q2.21875 0 3.59375 0.53125q1.390625 0.515625 2.03125 1.3125q0.65625 0.78125 0.921875 1.984375q0.140625 0.75 0.140625 2.703125l0 3.90625q0 4.078125 0.1875 5.15625q0.1875 1.078125 0.75 2.078125l-3.0625 0q-0.453125 -0.90625 -0.59375 -2.125zm-0.234375 -6.546875q-1.59375 0.65625 -4.78125 1.109375q-1.8125 0.25 -2.5625 0.578125q-0.75 0.328125 -1.15625 0.953125q-0.40625 0.625 -0.40625 1.390625q0 1.171875 0.890625 1.953125q0.890625 0.78125 2.59375 0.78125q1.6875 0 3.0 -0.734375q1.328125 -0.75 1.953125 -2.03125q0.46875 -0.984375 0.46875 -2.921875l0 -1.078125zm7.5198975 -11.8125l0 -3.375l2.921875 0l0 3.375l-2.921875 0zm0 20.484375l0 -17.28125l2.921875 0l0 17.28125l-2.921875 0zm7.3888245 0l0 -17.28125l2.625 0l0 2.453125q1.90625 -2.84375 5.5 -2.84375q1.5625 0 2.875 0.5625q1.3125 0.5625 1.953125 1.46875q0.65625 0.90625 0.921875 2.171875q0.15625 0.8125 0.15625 2.84375l0 10.625l-2.921875 0l0 -10.515625q0 -1.78125 -0.34375 -2.671875q-0.34375 -0.890625 -1.21875 -1.421875q-0.859375 -0.53125 -2.03125 -0.53125q-1.875 0 -3.234375 1.1875q-1.359375 1.1875 -1.359375 4.515625l0 9.4375l-2.921875 0z" fill-rule="nonzero"/><path fill="#000000" d="m44.58399 455.92654l2.96875 -0.25q0.21875 1.78125 0.984375 2.9375q0.78125 1.140625 2.40625 1.859375q1.625 0.703125 3.65625 0.703125q1.8125 0 3.1875 -0.53125q1.390625 -0.546875 2.0625 -1.484375q0.671875 -0.9375 0.671875 -2.046875q0 -1.109375 -0.65625 -1.953125q-0.640625 -0.84375 -2.140625 -1.40625q-0.953125 -0.375 -4.25 -1.15625q-3.28125 -0.796875 -4.59375 -1.5q-1.71875 -0.890625 -2.5625 -2.21875q-0.828125 -1.328125 -0.828125 -2.96875q0 -1.8125 1.015625 -3.375q1.03125 -1.578125 3.0 -2.390625q1.96875 -0.8125 4.390625 -0.8125q2.640625 0 4.671875 0.859375q2.03125 0.84375 3.109375 2.515625q1.09375 1.65625 1.171875 3.75l-3.015625 0.234375q-0.25 -2.265625 -1.65625 -3.421875q-1.40625 -1.15625 -4.15625 -1.15625q-2.859375 0 -4.171875 1.0625q-1.3125 1.046875 -1.3125 2.515625q0 1.296875 0.921875 2.125q0.921875 0.828125 4.765625 1.703125q3.84375 0.859375 5.28125 1.515625q2.078125 0.953125 3.0625 2.4375q1.0 1.46875 1.0 3.390625q0 1.90625 -1.09375 3.59375q-1.078125 1.671875 -3.125 2.609375q-2.046875 0.9375 -4.59375 0.9375q-3.25 0 -5.4375 -0.9375q-2.1875 -0.953125 -3.4375 -2.84375q-1.234375 -1.890625 -1.296875 -4.296875zm22.932728 14.296875l0 -23.90625l2.65625 0l0 2.25q0.953125 -1.328125 2.140625 -1.984375q1.1875 -0.65625 2.875 -0.65625q2.21875 0 3.90625 1.140625q1.6875 1.140625 2.546875 3.21875q0.875 2.0625 0.875 4.546875q0 2.640625 -0.953125 4.765625q-0.953125 2.125 -2.765625 3.265625q-1.8125 1.125 -3.8125 1.125q-1.46875 0 -2.640625 -0.609375q-1.15625 -0.625 -1.90625 -1.578125l0 8.421875l-2.921875 0zm2.640625 -15.171875q0 3.34375 1.34375 4.9375q1.359375 1.59375 3.28125 1.59375q1.953125 0 3.34375 -1.65625q1.390625 -1.65625 1.390625 -5.109375q0 -3.3125 -1.359375 -4.953125q-1.359375 -1.640625 -3.25 -1.640625q-1.859375 0 -3.3125 1.75q-1.4375 1.75 -1.4375 5.078125zm27.160522 6.421875q-1.625 1.375 -3.125 1.953125q-1.5 0.5625 -3.234375 0.5625q-2.84375 0 -4.375 -1.390625q-1.53125 -1.390625 -1.53125 -3.5625q0 -1.265625 0.578125 -2.3125q0.578125 -1.046875 1.515625 -1.671875q0.9375 -0.640625 2.109375 -0.96875q0.859375 -0.234375 2.59375 -0.4375q3.546875 -0.421875 5.234375 -1.015625q0.015625 -0.609375 0.015625 -0.765625q0 -1.78125 -0.828125 -2.515625q-1.125 -1.0 -3.34375 -1.0q-2.0625 0 -3.046875 0.734375q-0.984375 0.71875 -1.453125 2.546875l-2.875 -0.390625q0.390625 -1.828125 1.28125 -2.953125q0.90625 -1.140625 2.59375 -1.75q1.703125 -0.609375 3.921875 -0.609375q2.21875 0 3.59375 0.53125q1.390625 0.515625 2.03125 1.3125q0.65625 0.78125 0.921875 1.984375q0.140625 0.75 0.140625 2.703125l0 3.90625q0 4.078125 0.1875 5.15625q0.1875 1.078125 0.75 2.078125l-3.0625 0q-0.453125 -0.90625 -0.59375 -2.125zm-0.234375 -6.546875q-1.59375 0.65625 -4.78125 1.109375q-1.8125 0.25 -2.5625 0.578125q-0.75 0.328125 -1.15625 0.953125q-0.40625 0.625 -0.40625 1.390625q0 1.171875 0.890625 1.953125q0.890625 0.78125 2.59375 0.78125q1.6875 0 3.0 -0.734375q1.328125 -0.75 1.953125 -2.03125q0.46875 -0.984375 0.46875 -2.921875l0 -1.078125zm7.5198975 -11.8125l0 -3.375l2.921875 0l0 3.375l-2.921875 0zm0 20.484375l0 -17.28125l2.921875 0l0 17.28125l-2.921875 0zm7.3888245 0l0 -17.28125l2.625 0l0 2.453125q1.90625 -2.84375 5.5 -2.84375q1.5625 0 2.875 0.5625q1.3125 0.5625 1.953125 1.46875q0.65625 0.90625 0.921875 2.171875q0.15625 0.8125 0.15625 2.84375l0 10.625l-2.921875 0l0 -10.515625q0 -1.78125 -0.34375 -2.671875q-0.34375 -0.890625 -1.21875 -1.421875q-0.859375 -0.53125 -2.03125 -0.53125q-1.875 0 -3.234375 1.1875q-1.359375 1.1875 -1.359375 4.515625l0 9.4375l-2.921875 0z" fill-rule="nonzero"/><path fill="#000000" fill-opacity="0.0" d="m350.83466 179.51181l129.16534 0l0 180.97638l-129.16534 0z" fill-rule="evenodd"/><path stroke="#000000" stroke-width="2.0" stroke-linejoin="round" stroke-linecap="butt" d="m350.83466 179.51181l129.16534 0l0 180.97638l-129.16534 0z" fill-rule="evenodd"/><path fill="#000000" d="m361.41278 215.01807l4.171875 0.515625q0.109375 0.71875 0.484375 1.0q0.515625 0.390625 1.640625 0.390625q1.4375 0 2.140625 -0.4375q0.484375 -0.28125 0.734375 -0.921875q0.171875 -0.453125 0.171875 -1.671875l0 -2.015625q-1.640625 2.234375 -4.140625 2.234375q-2.78125 0 -4.40625 -2.359375q-1.28125 -1.859375 -1.28125 -4.625q0 -3.484375 1.671875 -5.3125q1.671875 -1.84375 4.15625 -1.84375q2.5625 0 4.234375 2.25l0 -1.9375l3.421875 0l0 12.40625q0 2.453125 -0.40625 3.65625q-0.40625 1.21875 -1.140625 1.90625q-0.71875 0.6875 -1.9375 1.078125q-1.21875 0.390625 -3.078125 0.390625q-3.515625 0 -4.984375 -1.203125q-1.46875 -1.203125 -1.46875 -3.046875q0 -0.1875 0.015625 -0.453125zm3.265625 -8.109375q0 2.203125 0.84375 3.234375q0.859375 1.015625 2.109375 1.015625q1.34375 0 2.265625 -1.046875q0.921875 -1.046875 0.921875 -3.109375q0 -2.140625 -0.890625 -3.1875q-0.875 -1.046875 -2.234375 -1.046875q-1.3125 0 -2.171875 1.03125q-0.84375 1.015625 -0.84375 3.109375zm16.86081 7.203125l-3.671875 0l0 -13.828125l3.40625 0l0 1.96875q0.875 -1.390625 1.5625 -1.828125q0.703125 -0.453125 1.578125 -0.453125q1.25 0 2.421875 0.703125l-1.140625 3.1875q-0.921875 -0.609375 -1.71875 -0.609375q-0.765625 0 -1.296875 0.421875q-0.53125 0.421875 -0.84375 1.53125q-0.296875 1.109375 -0.296875 4.640625l0 4.265625zm6.0141907 -7.109375q0 -1.8125 0.890625 -3.515625q0.90625 -1.71875 2.546875 -2.609375q1.65625 -0.90625 3.6875 -0.90625q3.140625 0 5.140625 2.046875q2.0 2.03125 2.0 5.140625q0 3.140625 -2.03125 5.203125q-2.015625 2.0625 -5.078125 2.0625q-1.90625 0 -3.640625 -0.859375q-1.71875 -0.859375 -2.625 -2.515625q-0.890625 -1.65625 -0.890625 -4.046875zm3.75 0.203125q0 2.046875 0.96875 3.140625q0.984375 1.09375 2.421875 1.09375q1.421875 0 2.390625 -1.09375q0.984375 -1.09375 0.984375 -3.171875q0 -2.03125 -0.984375 -3.125q-0.96875 -1.09375 -2.390625 -1.09375q-1.4375 0 -2.421875 1.09375q-0.96875 1.09375 -0.96875 3.15625zm22.48581 6.90625l0 -2.0625q-0.765625 1.09375 -2.0 1.734375q-1.21875 0.640625 -2.578125 0.640625q-1.40625 0 -2.515625 -0.609375q-1.09375 -0.609375 -1.59375 -1.71875q-0.5 -1.109375 -0.5 -3.0625l0 -8.75l3.671875 0l0 6.359375q0 2.90625 0.1875 3.578125q0.203125 0.65625 0.734375 1.046875q0.546875 0.375 1.359375 0.375q0.9375 0 1.671875 -0.515625q0.75 -0.515625 1.015625 -1.28125q0.28125 -0.765625 0.28125 -3.71875l0 -5.84375l3.65625 0l0 13.828125l-3.390625 0zm7.07959 -13.828125l3.40625 0l0 2.03125q0.671875 -1.03125 1.796875 -1.6875q1.125 -0.65625 2.515625 -0.65625q2.40625 0 4.078125 1.890625q1.6875 1.890625 1.6875 5.265625q0 3.453125 -1.703125 5.375q-1.6875 1.921875 -4.09375 1.921875q-1.140625 0 -2.078125 -0.453125q-0.921875 -0.453125 -1.953125 -1.5625l0 6.96875l-3.65625 0l0 -19.09375zm3.609375 6.6875q0 2.328125 0.921875 3.4375q0.9375 1.109375 2.265625 1.109375q1.265625 0 2.109375 -1.015625q0.859375 -1.03125 0.859375 -3.359375q0 -2.171875 -0.875 -3.21875q-0.875 -1.0625 -2.171875 -1.0625q-1.328125 0 -2.21875 1.046875q-0.890625 1.03125 -0.890625 3.0625zm12.610809 7.140625l0 -19.078125l3.671875 0l0 6.875q1.6875 -1.9375 4.0 -1.9375q2.53125 0 4.171875 1.828125q1.65625 1.828125 1.65625 5.265625q0 3.53125 -1.6875 5.453125q-1.671875 1.90625 -4.09375 1.90625q-1.171875 0 -2.328125 -0.59375q-1.15625 -0.59375 -1.984375 -1.75l0 2.03125l-3.40625 0zm3.640625 -7.203125q0 2.140625 0.671875 3.171875q0.953125 1.453125 2.53125 1.453125q1.203125 0 2.046875 -1.03125q0.859375 -1.03125 0.859375 -3.265625q0 -2.359375 -0.859375 -3.40625q-0.859375 -1.0625 -2.1875 -1.0625q-1.328125 0 -2.203125 1.03125q-0.859375 1.015625 -0.859375 3.109375zm11.07959 -6.625l3.890625 0l3.296875 9.8125l3.234375 -9.8125l3.78125 0l-4.875 13.3125l-0.875 2.40625q-0.484375 1.203125 -0.921875 1.84375q-0.4375 0.640625 -1.0 1.03125q-0.5625 0.40625 -1.390625 0.625q-0.828125 0.21875 -1.859375 0.21875q-1.0625 0 -2.078125 -0.21875l-0.328125 -2.859375q0.859375 0.15625 1.546875 0.15625q1.28125 0 1.890625 -0.75q0.609375 -0.734375 0.9375 -1.90625l-5.25 -13.859375z" fill-rule="nonzero"/><path fill="#000000" d="m400.31903 248.8993q3.46875 3.78125 5.984375 5.75q2.53125 1.9531403 4.78125 2.9218903l0 1.171875q-2.578125 1.25 -5.0 3.1875q-2.421875 1.9375 -5.78125 5.6875l-2.015625 0q2.453125 -5.234375 5.140625 -8.046875l-41.53125 0l0 -2.625l41.53125 0q-1.984375 -2.5000153 -2.765625 -3.7343903q-0.78125 -1.234375 -2.3125 -4.3125l1.96875 0z" fill-rule="nonzero"/><path fill="#000000" d="m362.14716 310.11182l0 -12.0l-2.0625 0l0 -1.828125l2.0625 0l0 -1.46875q0 -1.390625 0.25 -2.0625q0.34375 -0.921875 1.1875 -1.484375q0.859375 -0.5625 2.390625 -0.5625q0.984375 0 2.1875 0.234375l-0.34375 2.046875q-0.734375 -0.140625 -1.390625 -0.140625q-1.0625 0 -1.515625 0.46875q-0.4375 0.453125 -0.4375 1.703125l0 1.265625l2.703125 0l0 1.828125l-2.703125 0l0 12.0l-2.328125 0zm15.905945 0l0 -2.03125q-1.609375 2.34375 -4.375 2.34375q-1.234375 0 -2.296875 -0.46875q-1.0625 -0.46875 -1.578125 -1.171875q-0.5 -0.71875 -0.71875 -1.75q-0.140625 -0.6875 -0.140625 -2.1875l0 -8.5625l2.34375 0l0 7.671875q0 1.828125 0.140625 2.46875q0.21875 0.921875 0.9375 1.453125q0.71875 0.53125 1.765625 0.53125q1.0625 0 1.984375 -0.53125q0.921875 -0.546875 1.296875 -1.46875q0.390625 -0.9375 0.390625 -2.71875l0 -7.40625l2.34375 0l0 13.828125l-2.09375 0zm5.762451 0l0 -13.828125l2.109375 0l0 1.96875q1.53125 -2.28125 4.40625 -2.28125q1.25 0 2.296875 0.453125q1.046875 0.453125 1.5625 1.1875q0.53125 0.71875 0.734375 1.71875q0.125 0.65625 0.125 2.28125l0 8.5l-2.34375 0l0 -8.40625q0 -1.4375 -0.28125 -2.140625q-0.265625 -0.71875 -0.96875 -1.140625q-0.6875 -0.421875 -1.625 -0.421875q-1.484375 0 -2.578125 0.953125q-1.09375 0.953125 -1.09375 3.609375l0 7.546875l-2.34375 0zm23.85617 -5.0625l2.296875 0.296875q-0.375 2.390625 -1.9375 3.734375q-1.546875 1.34375 -3.8125 1.34375q-2.84375 0 -4.5625 -1.84375q-1.71875 -1.859375 -1.71875 -5.328125q0 -2.234375 0.734375 -3.90625q0.75 -1.6875 2.265625 -2.53125q1.515625 -0.84375 3.296875 -0.84375q2.25 0 3.671875 1.140625q1.4375 1.140625 1.84375 3.234375l-2.28125 0.359375q-0.328125 -1.390625 -1.15625 -2.09375q-0.8125 -0.703125 -1.984375 -0.703125q-1.78125 0 -2.890625 1.265625q-1.09375 1.265625 -1.09375 4.015625q0 2.78125 1.0625 4.046875q1.0625 1.265625 2.78125 1.265625q1.390625 0 2.3125 -0.84375q0.921875 -0.859375 1.171875 -2.609375zm9.421875 2.96875l0.328125 2.0625q-0.984375 0.21875 -1.765625 0.21875q-1.265625 0 -1.96875 -0.40625q-0.703125 -0.40625 -1.0 -1.0625q-0.28125 -0.65625 -0.28125 -2.765625l0 -7.953125l-1.71875 0l0 -1.828125l1.71875 0l0 -3.421875l2.328125 -1.40625l0 4.828125l2.359375 0l0 1.828125l-2.359375 0l0 8.078125q0 1.0 0.125 1.296875q0.125 0.28125 0.40625 0.453125q0.28125 0.171875 0.796875 0.171875q0.390625 0 1.03125 -0.09375zm2.2966003 -14.296875l0 -2.6875l2.34375 0l0 2.6875l-2.34375 0zm0 16.390625l0 -13.828125l2.34375 0l0 13.828125l-2.34375 0zm5.0471497 -6.90625q0 -3.84375 2.125 -5.6875q1.78125 -1.546875 4.34375 -1.546875q2.859375 0 4.65625 1.875q1.8125 1.859375 1.8125 5.15625q0 2.671875 -0.796875 4.203125q-0.796875 1.53125 -2.328125 2.375q-1.53125 0.84375 -3.34375 0.84375q-2.890625 0 -4.6875 -1.859375q-1.78125 -1.859375 -1.78125 -5.359375zm2.40625 0q0 2.65625 1.15625 3.984375q1.15625 1.3125 2.90625 1.3125q1.75 0 2.90625 -1.328125q1.15625 -1.328125 1.15625 -4.046875q0 -2.5625 -1.171875 -3.890625q-1.15625 -1.328125 -2.890625 -1.328125q-1.75 0 -2.90625 1.328125q-1.15625 1.3125 -1.15625 3.96875zm13.278076 6.90625l0 -13.828125l2.109375 0l0 1.96875q1.53125 -2.28125 4.40625 -2.28125q1.25 0 2.296875 0.453125q1.046875 0.453125 1.5625 1.1875q0.53125 0.71875 0.734375 1.71875q0.125 0.65625 0.125 2.28125l0 8.5l-2.34375 0l0 -8.40625q0 -1.4375 -0.28125 -2.140625q-0.265625 -0.71875 -0.96875 -1.140625q-0.6875 -0.421875 -1.625 -0.421875q-1.484375 0 -2.578125 0.953125q-1.09375 0.953125 -1.09375 3.609375l0 7.546875l-2.34375 0zm15.481171 -11.15625l0 -2.671875l2.671875 0l0 2.671875l-2.671875 0zm0 11.15625l0 -2.671875l2.671875 0l0 2.671875l-2.671875 0z" fill-rule="nonzero"/><path fill="#000000" d="m373.8034 332.37744l-3.609375 0.65625q-0.1875 -1.09375 -0.828125 -1.640625q-0.640625 -0.546875 -1.671875 -0.546875q-1.359375 0 -2.171875 0.953125q-0.8125 0.9375 -0.8125 3.15625q0 2.453125 0.8125 3.46875q0.828125 1.015625 2.21875 1.015625q1.046875 0 1.703125 -0.59375q0.671875 -0.59375 0.953125 -2.03125l3.578125 0.609375q-0.546875 2.46875 -2.140625 3.734375q-1.59375 1.265625 -4.25 1.265625q-3.03125 0 -4.84375 -1.90625q-1.796875 -1.921875 -1.796875 -5.296875q0 -3.4375 1.796875 -5.34375q1.8125 -1.90625 4.90625 -1.90625q2.515625 0 4.0 1.09375q1.5 1.078125 2.15625 3.3125zm1.9186707 2.625q0 -1.8125 0.890625 -3.515625q0.90625 -1.71875 2.546875 -2.609375q1.65625 -0.90625 3.6875 -0.90625q3.140625 0 5.140625 2.046875q2.0 2.03125 2.0 5.140625q0 3.140625 -2.03125 5.203125q-2.015625 2.0625 -5.078125 2.0625q-1.90625 0 -3.640625 -0.859375q-1.71875 -0.859375 -2.625 -2.515625q-0.890625 -1.65625 -0.890625 -4.046875zm3.75 0.203125q0 2.046875 0.96875 3.140625q0.984375 1.09375 2.421875 1.09375q1.421875 0 2.390625 -1.09375q0.984375 -1.09375 0.984375 -3.171875q0 -2.03125 -0.984375 -3.125q-0.96875 -1.09375 -2.390625 -1.09375q-1.4375 0 -2.421875 1.09375q-0.96875 1.09375 -0.96875 3.15625zm22.48584 6.90625l0 -2.0625q-0.765625 1.09375 -2.0 1.734375q-1.21875 0.640625 -2.578125 0.640625q-1.40625 0 -2.515625 -0.609375q-1.09375 -0.609375 -1.59375 -1.71875q-0.5 -1.109375 -0.5 -3.0625l0 -8.75l3.671875 0l0 6.359375q0 2.90625 0.1875 3.578125q0.203125 0.65625 0.734375 1.046875q0.546875 0.375 1.359375 0.375q0.9375 0 1.671875 -0.515625q0.75 -0.515625 1.015625 -1.28125q0.28125 -0.765625 0.28125 -3.71875l0 -5.84375l3.65625 0l0 13.828125l-3.390625 0zm19.751434 0l-3.65625 0l0 -7.046875q0 -2.25 -0.234375 -2.90625q-0.234375 -0.65625 -0.765625 -1.015625q-0.515625 -0.375 -1.265625 -0.375q-0.953125 0 -1.703125 0.53125q-0.75 0.515625 -1.03125 1.375q-0.28125 0.859375 -0.28125 3.171875l0 6.265625l-3.65625 0l0 -13.828125l3.390625 0l0 2.03125q1.8125 -2.34375 4.5625 -2.34375q1.203125 0 2.203125 0.4375q1.015625 0.4375 1.515625 1.125q0.515625 0.671875 0.71875 1.53125q0.203125 0.859375 0.203125 2.453125l0 8.59375zm10.04834 -13.828125l0 2.921875l-2.5 0l0 5.5625q0 1.703125 0.0625 1.984375q0.078125 0.28125 0.328125 0.46875q0.265625 0.171875 0.625 0.171875q0.515625 0 1.46875 -0.359375l0.3125 2.84375q-1.265625 0.546875 -2.890625 0.546875q-0.984375 0 -1.78125 -0.328125q-0.796875 -0.328125 -1.171875 -0.859375q-0.359375 -0.53125 -0.5 -1.421875q-0.125 -0.640625 -0.125 -2.578125l0 -6.03125l-1.671875 0l0 -2.921875l1.671875 0l0 -2.734375l3.671875 -2.140625l0 4.875l2.5 0z" fill-rule="nonzero"/><path shape-rendering="crispEdges" fill="#eeeeee" d="m509.74277 124.10236l153.39896 0l0 139.19687l-153.39896 0l0 -139.19687z" fill-rule="nonzero"/><path shape-rendering="crispEdges" fill="#eeeeee" d="m663.1417 124.10236l283.0525 0l0 139.19687l-283.0525 0l0 -139.19687z" fill-rule="nonzero"/><path shape-rendering="crispEdges" fill="#f4cccc" d="m509.74277 263.29922l153.39896 0l0 76.299194l-153.39896 0l0 -76.299194z" fill-rule="nonzero"/><path shape-rendering="crispEdges" fill="#cfe2f3" d="m509.74277 339.59842l153.39896 0l0 76.299225l-153.39896 0l0 -76.299225z" fill-rule="nonzero"/><path stroke="#9e9e9e" stroke-width="3.0" stroke-linecap="butt" d="m509.74277 122.603676l0 294.79266" fill-rule="nonzero"/><path stroke="#9e9e9e" stroke-width="3.0" stroke-linecap="butt" d="m663.1417 122.603676l0 294.79266" fill-rule="nonzero"/><path stroke="#9e9e9e" stroke-width="3.0" stroke-linecap="butt" d="m946.1942 122.603676l0 294.79266" fill-rule="nonzero"/><path stroke="#9e9e9e" stroke-width="3.0" stroke-linecap="butt" d="m508.24408 124.10236l439.44885 0" fill-rule="nonzero"/><path stroke="#9e9e9e" stroke-width="3.0" stroke-linecap="butt" d="m508.24408 263.29922l439.44885 0" fill-rule="nonzero"/><path stroke="#9e9e9e" stroke-width="3.0" stroke-linecap="butt" d="m508.24408 339.59842l439.44885 0" fill-rule="nonzero"/><path stroke="#9e9e9e" stroke-width="3.0" stroke-linecap="butt" d="m508.24408 415.89764l439.44885 0" fill-rule="nonzero"/><path fill="#000000" d="m536.4303 156.33673l4.671875 1.46875q-1.078125 3.90625 -3.578125 5.8125q-2.484375 1.890625 -6.328125 1.890625q-4.75 0 -7.8125 -3.25q-3.0625 -3.25 -3.0625 -8.875q0 -5.953125 3.078125 -9.25q3.078125 -3.296875 8.078125 -3.296875q4.390625 0 7.125 2.59375q1.625 1.53125 2.4375 4.390625l-4.765625 1.140625q-0.421875 -1.859375 -1.765625 -2.921875q-1.34375 -1.078125 -3.265625 -1.078125q-2.65625 0 -4.3125 1.90625q-1.640625 1.890625 -1.640625 6.15625q0 4.53125 1.625 6.453125q1.625 1.921875 4.234375 1.921875q1.921875 0 3.296875 -1.21875q1.390625 -1.234375 1.984375 -3.84375zm7.7091064 -0.125q0 -2.265625 1.125 -4.390625q1.125 -2.140625 3.1875 -3.265625q2.0625 -1.125 4.59375 -1.125q3.921875 0 6.421875 2.546875q2.515625 2.546875 2.515625 6.4375q0 3.921875 -2.53125 6.5q-2.53125 2.578125 -6.375 2.578125q-2.375 0 -4.53125 -1.0625q-2.15625 -1.078125 -3.28125 -3.15625q-1.125 -2.078125 -1.125 -5.0625zm4.6875 0.25q0 2.578125 1.21875 3.9375q1.234375 1.359375 3.015625 1.359375q1.796875 0 3.0 -1.359375q1.21875 -1.359375 1.21875 -3.96875q0 -2.546875 -1.21875 -3.90625q-1.203125 -1.375 -3.0 -1.375q-1.78125 0 -3.015625 1.375q-1.21875 1.359375 -1.21875 3.9375zm28.108154 8.640625l0 -2.59375q-0.9375 1.390625 -2.484375 2.1875q-1.53125 0.796875 -3.234375 0.796875q-1.75 0 -3.140625 -0.765625q-1.375 -0.765625 -2.0 -2.140625q-0.609375 -1.390625 -0.609375 -3.828125l0 -10.9375l4.578125 0l0 7.9375q0 3.640625 0.25 4.46875q0.25 0.828125 0.90625 1.3125q0.671875 0.46875 1.703125 0.46875q1.171875 0 2.09375 -0.640625q0.9375 -0.640625 1.265625 -1.59375q0.34375 -0.953125 0.34375 -4.65625l0 -7.296875l4.578125 0l0 17.28125l-4.25 0zm24.701904 0l-4.5625 0l0 -8.8125q0 -2.8125 -0.296875 -3.625q-0.296875 -0.828125 -0.953125 -1.28125q-0.65625 -0.453125 -1.59375 -0.453125q-1.1875 0 -2.140625 0.65625q-0.9375 0.640625 -1.28125 1.71875q-0.34375 1.078125 -0.34375 3.96875l0 7.828125l-4.578125 0l0 -17.28125l4.25 0l0 2.53125q2.265625 -2.921875 5.6875 -2.921875q1.515625 0 2.765625 0.546875q1.265625 0.546875 1.90625 1.390625q0.640625 0.84375 0.890625 1.921875q0.25 1.078125 0.25 3.078125l0 10.734375zm12.561279 -17.28125l0 3.640625l-3.125 0l0 6.96875q0 2.109375 0.09375 2.46875q0.09375 0.34375 0.40625 0.578125q0.3125 0.21875 0.78125 0.21875q0.625 0 1.828125 -0.4375l0.390625 3.546875q-1.59375 0.6875 -3.609375 0.6875q-1.234375 0 -2.234375 -0.40625q-0.984375 -0.421875 -1.453125 -1.078125q-0.46875 -0.65625 -0.640625 -1.78125q-0.140625 -0.796875 -0.140625 -3.234375l0 -7.53125l-2.109375 0l0 -3.640625l2.109375 0l0 -3.4375l4.578125 -2.671875l0 6.109375l3.125 0zm7.5516357 17.28125l-4.5625 0l0 -17.28125l4.234375 0l0 2.453125q1.09375 -1.734375 1.96875 -2.28125q0.875 -0.5625 1.96875 -0.5625q1.5625 0 3.015625 0.859375l-1.40625 3.984375q-1.15625 -0.75 -2.15625 -0.75q-0.953125 0 -1.625 0.53125q-0.671875 0.53125 -1.0625 1.921875q-0.375 1.375 -0.375 5.78125l0 5.34375zm6.4387817 -17.28125l4.859375 0l4.140625 12.265625l4.03125 -12.265625l4.734375 0l-6.109375 16.625l-1.078125 3.015625q-0.609375 1.515625 -1.15625 2.3125q-0.546875 0.796875 -1.25 1.28125q-0.703125 0.5 -1.75 0.78125q-1.03125 0.28125 -2.328125 0.28125q-1.3125 0 -2.59375 -0.28125l-0.40625 -3.578125q1.078125 0.21875 1.9375 0.21875q1.59375 0 2.359375 -0.9375q0.765625 -0.9375 1.171875 -2.390625l-6.5625 -17.328125z" fill-rule="nonzero"/><path fill="#000000" d="m674.53235 141.24298l4.8125 0l0 12.921875q0 3.078125 0.1875 3.984375q0.3125 1.46875 1.46875 2.359375q1.171875 0.890625 3.1875 0.890625q2.046875 0 3.078125 -0.84375q1.046875 -0.84375 1.25 -2.0625q0.21875 -1.21875 0.21875 -4.046875l0 -13.203125l4.828125 0l0 12.53125q0 4.296875 -0.390625 6.078125q-0.390625 1.765625 -1.453125 2.984375q-1.046875 1.21875 -2.8125 1.953125q-1.75 0.71875 -4.578125 0.71875q-3.421875 0 -5.1875 -0.78125q-1.765625 -0.796875 -2.796875 -2.046875q-1.015625 -1.265625 -1.34375 -2.65625q-0.46875 -2.046875 -0.46875 -6.046875l0 -12.734375zm39.787292 23.859375l-4.5625 0l0 -8.8125q0 -2.8125 -0.296875 -3.625q-0.296875 -0.828125 -0.953125 -1.28125q-0.65625 -0.453125 -1.59375 -0.453125q-1.1875 0 -2.140625 0.65625q-0.9375 0.640625 -1.28125 1.71875q-0.34375 1.078125 -0.34375 3.96875l0 7.828125l-4.578125 0l0 -17.28125l4.25 0l0 2.53125q2.265625 -2.921875 5.6875 -2.921875q1.515625 0 2.765625 0.546875q1.265625 0.546875 1.90625 1.390625q0.640625 0.84375 0.890625 1.921875q0.25 1.078125 0.25 3.078125l0 10.734375zm14.655029 -5.5l4.546875 0.765625q-0.875 2.5 -2.78125 3.8125q-1.890625 1.3125 -4.734375 1.3125q-4.5 0 -6.671875 -2.953125q-1.703125 -2.359375 -1.703125 -5.953125q0 -4.296875 2.234375 -6.71875q2.25 -2.4375 5.6875 -2.4375q3.859375 0 6.078125 2.546875q2.234375 2.546875 2.140625 7.796875l-11.453125 0q0.046875 2.046875 1.09375 3.171875q1.0625 1.125 2.640625 1.125q1.078125 0 1.8125 -0.578125q0.734375 -0.59375 1.109375 -1.890625zm0.25 -4.625q-0.046875 -1.984375 -1.03125 -3.015625q-0.96875 -1.03125 -2.359375 -1.03125q-1.5 0 -2.484375 1.09375q-0.96875 1.078125 -0.953125 2.953125l6.828125 0zm7.9261475 -7.15625l4.21875 0l0 2.359375q2.265625 -2.75 5.390625 -2.75q1.65625 0 2.875 0.6875q1.21875 0.671875 2.0 2.0625q1.140625 -1.390625 2.453125 -2.0625q1.328125 -0.6875 2.828125 -0.6875q1.890625 0 3.203125 0.78125q1.328125 0.765625 1.984375 2.265625q0.46875 1.109375 0.46875 3.578125l0 11.046875l-4.578125 0l0 -9.875q0 -2.578125 -0.46875 -3.328125q-0.625 -0.96875 -1.953125 -0.96875q-0.953125 0 -1.8125 0.59375q-0.84375 0.578125 -1.21875 1.71875q-0.359375 1.125 -0.359375 3.5625l0 8.296875l-4.578125 0l0 -9.46875q0 -2.53125 -0.25 -3.25q-0.234375 -0.734375 -0.75 -1.09375q-0.515625 -0.359375 -1.390625 -0.359375q-1.0625 0 -1.90625 0.578125q-0.84375 0.5625 -1.21875 1.640625q-0.359375 1.0625 -0.359375 3.5625l0 8.390625l-4.578125 0l0 -17.28125zm29.852783 0l4.265625 0l0 2.53125q0.828125 -1.296875 2.234375 -2.109375q1.421875 -0.8125 3.140625 -0.8125q3.015625 0 5.109375 2.359375q2.109375 2.359375 2.109375 6.578125q0 4.328125 -2.125 6.734375q-2.109375 2.390625 -5.125 2.390625q-1.421875 0 -2.59375 -0.5625q-1.15625 -0.578125 -2.453125 -1.953125l0 8.703125l-4.5625 0l0 -23.859375zm4.515625 8.34375q0 2.921875 1.15625 4.3125q1.15625 1.390625 2.8125 1.390625q1.609375 0 2.65625 -1.28125q1.0625 -1.28125 1.0625 -4.1875q0 -2.71875 -1.09375 -4.03125q-1.09375 -1.328125 -2.703125 -1.328125q-1.671875 0 -2.78125 1.296875q-1.109375 1.296875 -1.109375 3.828125zm15.967529 8.9375l0 -23.859375l4.578125 0l0 23.859375l-4.578125 0zm8.197144 -8.890625q0 -2.265625 1.125 -4.390625q1.125 -2.140625 3.1875 -3.265625q2.0625 -1.125 4.59375 -1.125q3.921875 0 6.421875 2.546875q2.515625 2.546875 2.515625 6.4375q0 3.921875 -2.53125 6.5q-2.53125 2.578125 -6.375 2.578125q-2.375 0 -4.53125 -1.0625q-2.15625 -1.078125 -3.28125 -3.15625q-1.125 -2.078125 -1.125 -5.0625zm4.6875 0.25q0 2.578125 1.21875 3.9375q1.234375 1.359375 3.015625 1.359375q1.796875 0 3.0 -1.359375q1.21875 -1.359375 1.21875 -3.96875q0 -2.546875 -1.21875 -3.90625q-1.203125 -1.375 -3.0 -1.375q-1.78125 0 -3.015625 1.375q-1.21875 1.359375 -1.21875 3.9375zm14.576904 -8.640625l4.859375 0l4.140625 12.265625l4.03125 -12.265625l4.734375 0l-6.109375 16.625l-1.078125 3.015625q-0.609375 1.515625 -1.15625 2.3125q-0.546875 0.796875 -1.25 1.28125q-0.703125 0.5 -1.75 0.78125q-1.03125 0.28125 -2.328125 0.28125q-1.3125 0 -2.59375 -0.28125l-0.40625 -3.578125q1.078125 0.21875 1.9375 0.21875q1.59375 0 2.359375 -0.9375q0.765625 -0.9375 1.171875 -2.390625l-6.5625 -17.328125zm20.348022 0l4.21875 0l0 2.359375q2.265625 -2.75 5.390625 -2.75q1.65625 0 2.875 0.6875q1.21875 0.671875 2.0 2.0625q1.140625 -1.390625 2.453125 -2.0625q1.328125 -0.6875 2.828125 -0.6875q1.890625 0 3.203125 0.78125q1.328125 0.765625 1.984375 2.265625q0.46875 1.109375 0.46875 3.578125l0 11.046875l-4.578125 0l0 -9.875q0 -2.578125 -0.46875 -3.328125q-0.625 -0.96875 -1.953125 -0.96875q-0.953125 0 -1.8125 0.59375q-0.84375 0.578125 -1.21875 1.71875q-0.359375 1.125 -0.359375 3.5625l0 8.296875l-4.578125 0l0 -9.46875q0 -2.53125 -0.25 -3.25q-0.234375 -0.734375 -0.75 -1.09375q-0.515625 -0.359375 -1.390625 -0.359375q-1.0625 0 -1.90625 0.578125q-0.84375 0.5625 -1.21875 1.640625q-0.359375 1.0625 -0.359375 3.5625l0 8.390625l-4.578125 0l0 -17.28125zm39.99341 11.78125l4.546875 0.765625q-0.875 2.5 -2.78125 3.8125q-1.890625 1.3125 -4.734375 1.3125q-4.5 0 -6.671875 -2.953125q-1.703125 -2.359375 -1.703125 -5.953125q0 -4.296875 2.234375 -6.71875q2.25 -2.4375 5.6875 -2.4375q3.859375 0 6.078125 2.546875q2.234375 2.546875 2.140625 7.796875l-11.453125 0q0.046875 2.046875 1.09375 3.171875q1.0625 1.125 2.640625 1.125q1.078125 0 1.8125 -0.578125q0.734375 -0.59375 1.109375 -1.890625zm0.25 -4.625q-0.046875 -1.984375 -1.03125 -3.015625q-0.96875 -1.03125 -2.359375 -1.03125q-1.5 0 -2.484375 1.09375q-0.96875 1.078125 -0.953125 2.953125l6.828125 0zm23.988647 10.125l-4.5625 0l0 -8.8125q0 -2.8125 -0.296875 -3.625q-0.296875 -0.828125 -0.953125 -1.28125q-0.65625 -0.453125 -1.59375 -0.453125q-1.1875 0 -2.140625 0.65625q-0.9375 0.640625 -1.28125 1.71875q-0.34375 1.078125 -0.34375 3.96875l0 7.828125l-4.578125 0l0 -17.28125l4.25 0l0 2.53125q2.265625 -2.921875 5.6875 -2.921875q1.515625 0 2.765625 0.546875q1.265625 0.546875 1.90625 1.390625q0.640625 0.84375 0.890625 1.921875q0.25 1.078125 0.25 3.078125l0 10.734375zm12.561279 -17.28125l0 3.640625l-3.125 0l0 6.96875q0 2.109375 0.09375 2.46875q0.09375 0.34375 0.40625 0.578125q0.3125 0.21875 0.78125 0.21875q0.625 0 1.828125 -0.4375l0.390625 3.546875q-1.59375 0.6875 -3.609375 0.6875q-1.234375 0 -2.234375 -0.40625q-0.984375 -0.421875 -1.453125 -1.078125q-0.46875 -0.65625 -0.640625 -1.78125q-0.140625 -0.796875 -0.140625 -3.234375l0 -7.53125l-2.109375 0l0 -3.640625l2.109375 0l0 -3.4375l4.578125 -2.671875l0 6.109375l3.125 0z" fill-rule="nonzero"/><path fill="#000000" d="m674.5792 205.10236l0 -23.859375l10.140625 0q3.828125 0 5.5625 0.640625q1.734375 0.640625 2.765625 2.296875q1.046875 1.640625 1.046875 3.75q0 2.6875 -1.578125 4.4375q-1.578125 1.75 -4.71875 2.203125q1.5625 0.90625 2.578125 2.0q1.015625 1.09375 2.734375 3.875l2.921875 4.65625l-5.765625 0l-3.484375 -5.1875q-1.84375 -2.78125 -2.53125 -3.5q-0.6875 -0.734375 -1.453125 -1.0q-0.765625 -0.265625 -2.421875 -0.265625l-0.96875 0l0 9.953125l-4.828125 0zm4.828125 -13.765625l3.5625 0q3.453125 0 4.3125 -0.296875q0.875 -0.296875 1.359375 -1.0q0.484375 -0.71875 0.484375 -1.796875q0 -1.203125 -0.640625 -1.9375q-0.640625 -0.75 -1.8125 -0.9375q-0.578125 -0.09375 -3.515625 -0.09375l-3.75 0l0 6.0625zm22.615417 1.75l-4.15625 -0.75q0.703125 -2.5 2.40625 -3.703125q1.71875 -1.203125 5.078125 -1.203125q3.0625 0 4.5625 0.734375q1.5 0.71875 2.109375 1.828125q0.609375 1.109375 0.609375 4.09375l-0.046875 5.34375q0 2.265625 0.21875 3.359375q0.21875 1.078125 0.8125 2.3125l-4.515625 0q-0.1875 -0.453125 -0.4375 -1.34375q-0.125 -0.40625 -0.171875 -0.546875q-1.171875 1.140625 -2.5 1.71875q-1.328125 0.5625 -2.84375 0.5625q-2.671875 0 -4.21875 -1.4375q-1.53125 -1.453125 -1.53125 -3.671875q0 -1.46875 0.703125 -2.609375q0.703125 -1.15625 1.953125 -1.765625q1.265625 -0.609375 3.640625 -1.0625q3.203125 -0.59375 4.4375 -1.125l0 -0.453125q0 -1.3125 -0.65625 -1.875q-0.640625 -0.5625 -2.453125 -0.5625q-1.21875 0 -1.90625 0.484375q-0.671875 0.46875 -1.09375 1.671875zm6.109375 3.71875q-0.875 0.296875 -2.78125 0.703125q-1.90625 0.40625 -2.484375 0.796875q-0.890625 0.625 -0.890625 1.609375q0 0.953125 0.703125 1.65625q0.71875 0.703125 1.828125 0.703125q1.234375 0 2.359375 -0.8125q0.828125 -0.625 1.09375 -1.515625q0.171875 -0.59375 0.171875 -2.234375l0 -0.90625zm16.926147 -8.984375l0 3.640625l-3.125 0l0 6.96875q0 2.109375 0.09375 2.46875q0.09375 0.34375 0.40625 0.578125q0.3125 0.21875 0.78125 0.21875q0.625 0 1.828125 -0.4375l0.390625 3.546875q-1.59375 0.6875 -3.609375 0.6875q-1.234375 0 -2.234375 -0.40625q-0.984375 -0.421875 -1.453125 -1.078125q-0.46875 -0.65625 -0.640625 -1.78125q-0.140625 -0.796875 -0.140625 -3.234375l0 -7.53125l-2.109375 0l0 -3.640625l2.109375 0l0 -3.4375l4.578125 -2.671875l0 6.109375l3.125 0zm13.192261 11.78125l4.546875 0.765625q-0.875 2.5 -2.78125 3.8125q-1.890625 1.3125 -4.734375 1.3125q-4.5 0 -6.671875 -2.953125q-1.703125 -2.359375 -1.703125 -5.953125q0 -4.296875 2.234375 -6.71875q2.25 -2.4375 5.6875 -2.4375q3.859375 0 6.078125 2.546875q2.234375 2.546875 2.140625 7.796875l-11.453125 0q0.046875 2.046875 1.09375 3.171875q1.0625 1.125 2.640625 1.125q1.078125 0 1.8125 -0.578125q0.734375 -0.59375 1.109375 -1.890625zm0.25 -4.625q-0.046875 -1.984375 -1.03125 -3.015625q-0.96875 -1.03125 -2.359375 -1.03125q-1.5 0 -2.484375 1.09375q-0.96875 1.078125 -0.953125 2.953125l6.828125 0z" fill-rule="nonzero"/><path fill="#000000" d="m520.2428 296.62735l2.96875 -0.25q0.21875 1.78125 0.984375 2.9375q0.78125 1.140625 2.40625 1.859375q1.625 0.703125 3.65625 0.703125q1.8125 0 3.1875 -0.53125q1.390625 -0.546875 2.0625 -1.484375q0.671875 -0.9375 0.671875 -2.046875q0 -1.109375 -0.65625 -1.953125q-0.640625 -0.84375 -2.140625 -1.40625q-0.953125 -0.375 -4.25 -1.15625q-3.28125 -0.796875 -4.59375 -1.5q-1.71875 -0.890625 -2.5625 -2.21875q-0.828125 -1.328125 -0.828125 -2.96875q0 -1.8125 1.015625 -3.375q1.03125 -1.578125 3.0 -2.390625q1.96875 -0.8125 4.390625 -0.8125q2.640625 0 4.671875 0.859375q2.03125 0.84375 3.109375 2.515625q1.09375 1.65625 1.171875 3.75l-3.015625 0.234375q-0.25 -2.265625 -1.65625 -3.421875q-1.40625 -1.15625 -4.15625 -1.15625q-2.859375 0 -4.171875 1.0625q-1.3125 1.046875 -1.3125 2.515625q0 1.296875 0.921875 2.125q0.921875 0.828125 4.765625 1.703125q3.84375 0.859375 5.28125 1.515625q2.078125 0.953125 3.0625 2.4375q1.0 1.46875 1.0 3.390625q0 1.90625 -1.09375 3.59375q-1.078125 1.671875 -3.125 2.609375q-2.046875 0.9375 -4.59375 0.9375q-3.25 0 -5.4375 -0.9375q-2.1875 -0.953125 -3.4375 -2.84375q-1.234375 -1.890625 -1.296875 -4.296875zm22.932678 14.296875l0 -23.90625l2.65625 0l0 2.25q0.953125 -1.328125 2.140625 -1.984375q1.1875 -0.65625 2.875 -0.65625q2.21875 0 3.90625 1.140625q1.6875 1.140625 2.546875 3.21875q0.875 2.0625 0.875 4.546875q0 2.640625 -0.953125 4.765625q-0.953125 2.125 -2.765625 3.265625q-1.8125 1.125 -3.8125 1.125q-1.46875 0 -2.640625 -0.609375q-1.15625 -0.625 -1.90625 -1.578125l0 8.421875l-2.921875 0zm2.640625 -15.171875q0 3.34375 1.34375 4.9375q1.359375 1.59375 3.28125 1.59375q1.953125 0 3.34375 -1.65625q1.390625 -1.65625 1.390625 -5.109375q0 -3.3125 -1.359375 -4.953125q-1.359375 -1.640625 -3.25 -1.640625q-1.859375 0 -3.3125 1.75q-1.4375 1.75 -1.4375 5.078125zm27.160522 6.421875q-1.625 1.375 -3.125 1.953125q-1.5 0.5625 -3.234375 0.5625q-2.84375 0 -4.375 -1.390625q-1.53125 -1.390625 -1.53125 -3.5625q0 -1.265625 0.578125 -2.3125q0.578125 -1.046875 1.515625 -1.671875q0.9375 -0.640625 2.109375 -0.96875q0.859375 -0.234375 2.59375 -0.4375q3.546875 -0.421875 5.234375 -1.015625q0.015625 -0.609375 0.015625 -0.765625q0 -1.78125 -0.828125 -2.515625q-1.125 -1.0 -3.34375 -1.0q-2.0625 0 -3.046875 0.734375q-0.984375 0.71875 -1.453125 2.546875l-2.875 -0.390625q0.390625 -1.828125 1.28125 -2.953125q0.90625 -1.140625 2.59375 -1.75q1.703125 -0.609375 3.921875 -0.609375q2.21875 0 3.59375 0.53125q1.390625 0.515625 2.03125 1.3125q0.65625 0.78125 0.921875 1.984375q0.140625 0.75 0.140625 2.703125l0 3.90625q0 4.078125 0.1875 5.15625q0.1875 1.078125 0.75 2.078125l-3.0625 0q-0.453125 -0.90625 -0.59375 -2.125zm-0.234375 -6.546875q-1.59375 0.65625 -4.78125 1.109375q-1.8125 0.25 -2.5625 0.578125q-0.75 0.328125 -1.15625 0.953125q-0.40625 0.625 -0.40625 1.390625q0 1.171875 0.890625 1.953125q0.890625 0.78125 2.59375 0.78125q1.6875 0 3.0 -0.734375q1.328125 -0.75 1.953125 -2.03125q0.46875 -0.984375 0.46875 -2.921875l0 -1.078125zm7.5198975 -11.8125l0 -3.375l2.921875 0l0 3.375l-2.921875 0zm0 20.484375l0 -17.28125l2.921875 0l0 17.28125l-2.921875 0zm7.388855 0l0 -17.28125l2.625 0l0 2.453125q1.90625 -2.84375 5.5 -2.84375q1.5625 0 2.875 0.5625q1.3125 0.5625 1.953125 1.46875q0.65625 0.90625 0.921875 2.171875q0.15625 0.8125 0.15625 2.84375l0 10.625l-2.921875 0l0 -10.515625q0 -1.78125 -0.34375 -2.671875q-0.34375 -0.890625 -1.21875 -1.421875q-0.859375 -0.53125 -2.03125 -0.53125q-1.875 0 -3.234375 1.1875q-1.359375 1.1875 -1.359375 4.515625l0 9.4375l-2.921875 0z" fill-rule="nonzero"/><path fill="#000000" d="m673.548 298.00235l2.921875 -0.390625q0.5 2.484375 1.71875 3.59375q1.21875 1.09375 2.953125 1.09375q2.0625 0 3.484375 -1.421875q1.421875 -1.4375 1.421875 -3.5625q0 -2.015625 -1.3125 -3.328125q-1.3125 -1.3125 -3.34375 -1.3125q-0.84375 0 -2.078125 0.328125l0.328125 -2.5625q0.296875 0.03125 0.46875 0.03125q1.875 0 3.375 -0.96875q1.5 -0.984375 1.5 -3.015625q0 -1.625 -1.09375 -2.671875q-1.09375 -1.0625 -2.8125 -1.0625q-1.71875 0 -2.859375 1.078125q-1.125 1.078125 -1.453125 3.21875l-2.9375 -0.515625q0.546875 -2.953125 2.4375 -4.5625q1.90625 -1.625 4.75 -1.625q1.953125 0 3.59375 0.84375q1.640625 0.828125 2.5 2.28125q0.875 1.453125 0.875 3.078125q0 1.546875 -0.828125 2.8125q-0.828125 1.265625 -2.453125 2.015625q2.109375 0.484375 3.28125 2.03125q1.171875 1.53125 1.171875 3.84375q0 3.125 -2.28125 5.296875q-2.265625 2.171875 -5.75 2.171875q-3.140625 0 -5.21875 -1.859375q-2.078125 -1.875 -2.359375 -4.859375z" fill-rule="nonzero"/><path fill="#000000" d="m521.3209 380.59842l0 -23.859375l9.0 0q2.375 0 3.625 0.234375q1.75 0.28125 2.9375 1.109375q1.1875 0.828125 1.90625 2.3125q0.734375 1.46875 0.734375 3.25q0 3.046875 -1.9375 5.15625q-1.9375 2.09375 -7.0 2.09375l-6.109375 0l0 9.703125l-3.15625 0zm3.15625 -12.515625l6.15625 0q3.0625 0 4.34375 -1.140625q1.296875 -1.140625 1.296875 -3.203125q0 -1.5 -0.765625 -2.5625q-0.75 -1.0625 -1.984375 -1.40625q-0.796875 -0.21875 -2.953125 -0.21875l-6.09375 0l0 8.53125zm17.604553 3.875q0 -4.796875 2.671875 -7.109375q2.21875 -1.921875 5.421875 -1.921875q3.578125 0 5.828125 2.34375q2.265625 2.328125 2.265625 6.4375q0 3.34375 -1.0 5.265625q-1.0 1.90625 -2.921875 2.96875q-1.90625 1.046875 -4.171875 1.046875q-3.625 0 -5.859375 -2.328125q-2.234375 -2.328125 -2.234375 -6.703125zm3.015625 0q0 3.3125 1.4375 4.96875q1.453125 1.65625 3.640625 1.65625q2.1875 0 3.625 -1.65625q1.453125 -1.671875 1.453125 -5.0625q0 -3.203125 -1.453125 -4.859375q-1.453125 -1.65625 -3.625 -1.65625q-2.1875 0 -3.640625 1.640625q-1.4375 1.640625 -1.4375 4.96875zm16.582397 8.640625l0 -17.28125l2.625 0l0 2.625q1.015625 -1.84375 1.859375 -2.421875q0.859375 -0.59375 1.890625 -0.59375q1.484375 0 3.0 0.9375l-1.0 2.71875q-1.078125 -0.625 -2.15625 -0.625q-0.953125 0 -1.71875 0.578125q-0.765625 0.578125 -1.09375 1.59375q-0.484375 1.5625 -0.484375 3.421875l0 9.046875l-2.921875 0zm17.520447 -2.625l0.421875 2.59375q-1.234375 0.265625 -2.21875 0.265625q-1.59375 0 -2.46875 -0.5q-0.875 -0.515625 -1.234375 -1.328125q-0.359375 -0.828125 -0.359375 -3.46875l0 -9.9375l-2.15625 0l0 -2.28125l2.15625 0l0 -4.28125l2.90625 -1.75l0 6.03125l2.953125 0l0 2.28125l-2.953125 0l0 10.109375q0 1.25 0.15625 1.609375q0.15625 0.359375 0.5 0.578125q0.359375 0.203125 1.015625 0.203125q0.484375 0 1.28125 -0.125zm14.1814575 2.625l0 -2.53125q-2.015625 2.921875 -5.46875 2.921875q-1.53125 0 -2.859375 -0.578125q-1.328125 -0.59375 -1.96875 -1.484375q-0.640625 -0.890625 -0.90625 -2.171875q-0.1875 -0.859375 -0.1875 -2.734375l0 -10.703125l2.9375 0l0 9.578125q0 2.296875 0.171875 3.09375q0.28125 1.15625 1.171875 1.828125q0.90625 0.65625 2.21875 0.65625q1.3125 0 2.46875 -0.671875q1.15625 -0.6875 1.640625 -1.84375q0.484375 -1.171875 0.484375 -3.375l0 -9.265625l2.921875 0l0 17.28125l-2.625 0zm6.6761475 1.4375l2.84375 0.421875q0.1875 1.3125 1.0 1.921875q1.09375 0.8125 2.984375 0.8125q2.03125 0 3.125 -0.8125q1.109375 -0.8125 1.5 -2.28125q0.234375 -0.890625 0.21875 -3.765625q-1.921875 2.265625 -4.78125 2.265625q-3.5625 0 -5.515625 -2.5625q-1.953125 -2.578125 -1.953125 -6.171875q0 -2.484375 0.890625 -4.5625q0.890625 -2.09375 2.59375 -3.234375q1.703125 -1.140625 4.0 -1.140625q3.0625 0 5.046875 2.46875l0 -2.078125l2.703125 0l0 14.9375q0 4.03125 -0.828125 5.71875q-0.828125 1.6875 -2.609375 2.65625q-1.78125 0.984375 -4.375 0.984375q-3.09375 0 -5.0 -1.390625q-1.90625 -1.390625 -1.84375 -4.1875zm2.421875 -10.390625q0 3.40625 1.34375 4.96875q1.359375 1.5625 3.390625 1.5625q2.03125 0 3.390625 -1.546875q1.375 -1.5625 1.375 -4.890625q0 -3.171875 -1.421875 -4.78125q-1.40625 -1.609375 -3.390625 -1.609375q-1.953125 0 -3.328125 1.59375q-1.359375 1.578125 -1.359375 4.703125zm27.926147 6.828125q-1.625 1.375 -3.125 1.953125q-1.5 0.5625 -3.234375 0.5625q-2.84375 0 -4.375 -1.390625q-1.53125 -1.390625 -1.53125 -3.5625q0 -1.265625 0.578125 -2.3125q0.578125 -1.046875 1.515625 -1.671875q0.9375 -0.640625 2.109375 -0.96875q0.859375 -0.234375 2.59375 -0.4375q3.546875 -0.421875 5.234375 -1.015625q0.015625 -0.609375 0.015625 -0.765625q0 -1.78125 -0.828125 -2.515625q-1.125 -1.0 -3.34375 -1.0q-2.0625 0 -3.046875 0.734375q-0.984375 0.71875 -1.453125 2.546875l-2.875 -0.390625q0.390625 -1.828125 1.28125 -2.953125q0.90625 -1.140625 2.59375 -1.75q1.703125 -0.609375 3.921875 -0.609375q2.21875 0 3.59375 0.53125q1.390625 0.515625 2.03125 1.3125q0.65625 0.78125 0.921875 1.984375q0.140625 0.75 0.140625 2.703125l0 3.90625q0 4.078125 0.1875 5.15625q0.1875 1.078125 0.75 2.078125l-3.0625 0q-0.453125 -0.90625 -0.59375 -2.125zm-0.234375 -6.546875q-1.59375 0.65625 -4.78125 1.109375q-1.8125 0.25 -2.5625 0.578125q-0.75 0.328125 -1.15625 0.953125q-0.40625 0.625 -0.40625 1.390625q0 1.171875 0.890625 1.953125q0.890625 0.78125 2.59375 0.78125q1.6875 0 3.0 -0.734375q1.328125 -0.75 1.953125 -2.03125q0.46875 -0.984375 0.46875 -2.921875l0 -1.078125zm7.4261475 8.671875l0 -23.859375l2.9375 0l0 23.859375l-2.9375 0z" fill-rule="nonzero"/><path fill="#000000" d="m688.923 377.78592l0 2.8125l-15.765625 0q-0.046875 -1.0625 0.328125 -2.03125q0.609375 -1.609375 1.9375 -3.171875q1.328125 -1.5625 3.828125 -3.609375q3.890625 -3.203125 5.25 -5.0625q1.375 -1.859375 1.375 -3.515625q0 -1.75 -1.25 -2.9375q-1.234375 -1.203125 -3.234375 -1.203125q-2.125 0 -3.390625 1.28125q-1.265625 1.265625 -1.28125 3.5l-3.015625 -0.296875q0.3125 -3.375 2.328125 -5.140625q2.015625 -1.765625 5.421875 -1.765625q3.421875 0 5.421875 1.90625q2.015625 1.90625 2.015625 4.71875q0 1.421875 -0.59375 2.8125q-0.578125 1.390625 -1.9375 2.921875q-1.359375 1.515625 -4.515625 4.1875q-2.640625 2.21875 -3.390625 3.015625q-0.75 0.78125 -1.234375 1.578125l11.703125 0z" fill-rule="nonzero"/></g></svg>